<?xml version="1.0" standalone="no"?>
<!DOCTYPE svg PUBLIC "-//W3C//DTD SVG 20010904//EN"
 "http://www.w3.org/TR/2001/REC-SVG-20010904/DTD/svg10.dtd">
<svg version="1.0" xmlns="http://www.w3.org/2000/svg"
 width="7730.000000pt" height="7730.000000pt" viewBox="0 0 7730.000000 7730.000000"
 preserveAspectRatio="xMidYMid meet">

<g transform="translate(0.000000,7730.000000) scale(0.100000,-0.100000)"
fill="#000000" stroke="none">
<path d="M55762 66954 c-64 -32 -114 -81 -144 -143 -19 -37 -23 -62 -23 -131
0 -79 3 -89 34 -137 40 -64 102 -119 150 -134 20 -6 122 -17 226 -24 217 -16
451 -38 640 -60 248 -30 258 -30 326 -5 247 90 267 426 32 543 -39 20 -90 29
-278 50 -359 41 -556 58 -740 63 -168 5 -171 5 -223 -22z"/>
<path d="M54130 66935 c-63 -8 -176 -21 -250 -30 -125 -14 -304 -40 -560 -81
-58 -9 -128 -27 -156 -40 -54 -25 -128 -97 -145 -142 -25 -64 -32 -130 -20
-179 27 -108 73 -168 160 -211 77 -37 150 -35 426 10 248 41 405 62 613 82
177 17 249 46 306 125 57 77 69 115 63 197 -8 113 -63 196 -162 245 -78 38
-120 42 -275 24z"/>
<path d="M58386 66553 c-63 -16 -80 -27 -138 -86 -40 -40 -63 -85 -78 -151
-14 -63 13 -177 54 -223 6 -7 16 -18 22 -25 36 -44 94 -73 199 -103 75 -21
182 -53 255 -76 184 -58 215 -63 277 -49 58 13 117 45 159 87 33 33 72 121 80
179 17 134 -91 279 -238 318 -29 8 -96 29 -148 46 -52 17 -131 40 -175 51 -44
11 -91 24 -105 29 -49 17 -106 19 -164 3z"/>
<path d="M51646 66412 c-3 -5 -31 -15 -63 -22 -32 -8 -69 -20 -83 -27 -14 -7
-30 -13 -35 -13 -12 0 -260 -91 -465 -170 -385 -149 -413 -165 -468 -269 -77
-144 -15 -328 137 -403 36 -17 62 -22 121 -22 71 1 88 6 300 91 235 95 493
193 509 193 15 0 232 79 270 98 110 55 175 205 141 329 -12 43 -55 119 -85
149 -15 15 -72 45 -115 61 -39 14 -156 18 -164 5z"/>
<path d="M49315 65339 c-27 -4 -63 -13 -80 -20 -43 -20 -500 -302 -515 -319
-3 -3 -39 -27 -80 -55 -41 -27 -79 -54 -85 -58 -5 -5 -55 -40 -110 -78 -179
-125 -210 -171 -210 -309 0 -99 17 -139 85 -207 62 -62 134 -86 233 -80 76 5
79 6 175 72 53 36 147 100 207 141 61 41 115 78 120 82 27 21 225 148 353 226
78 49 157 105 175 126 143 167 44 440 -173 478 -25 4 -67 5 -95 1z"/>
<path d="M54220 64864 c-23 -4 -107 -20 -235 -45 -27 -5 -156 -30 -285 -55
-129 -24 -266 -51 -305 -59 -38 -8 -189 -38 -335 -65 -146 -28 -308 -59 -360
-70 -52 -10 -171 -33 -265 -50 -218 -40 -270 -56 -300 -92 -25 -29 -45 -85
-45 -125 0 -22 -52 -402 -69 -508 -6 -33 -17 -114 -26 -180 -9 -66 -36 -259
-60 -430 -24 -170 -49 -351 -56 -401 -6 -51 -14 -96 -18 -101 -3 -5 -33 -22
-66 -38 -331 -153 -679 -348 -975 -544 -96 -64 -179 -119 -185 -124 -20 -15
-141 -103 -161 -117 -28 -20 -188 -142 -194 -149 -3 -3 -41 -35 -85 -71 -44
-35 -135 -113 -202 -172 -66 -59 -129 -108 -140 -108 -10 0 -52 9 -93 21 -41
12 -149 40 -240 64 -282 73 -403 106 -450 120 -25 8 -115 32 -200 54 -85 22
-213 56 -285 75 -307 85 -355 96 -402 96 -68 0 -89 -18 -182 -159 -43 -64
-132 -197 -199 -296 -67 -99 -203 -299 -301 -445 -210 -313 -350 -520 -489
-725 -90 -133 -102 -155 -102 -193 0 -38 21 -98 39 -112 4 -3 18 -21 31 -40
13 -19 27 -37 30 -40 6 -5 218 -287 467 -620 133 -177 201 -268 275 -363 9
-12 58 -78 109 -147 l92 -124 -58 -176 c-33 -96 -62 -179 -66 -183 -4 -5 -454
1 -1000 13 -547 11 -1199 25 -1449 30 -250 5 -564 12 -697 16 -240 7 -241 7
-233 28 5 12 28 86 51 166 23 80 45 150 49 155 4 6 11 25 15 44 7 34 78 232
136 382 23 61 29 91 29 155 0 96 -19 143 -82 206 -61 60 -108 81 -195 86 -64
4 -80 1 -136 -26 -82 -38 -133 -97 -170 -200 -15 -42 -34 -95 -43 -117 -65
-177 -155 -449 -197 -599 -12 -44 -27 -81 -33 -83 -5 -2 -35 41 -66 94 -86
149 -239 414 -259 448 -10 17 -24 41 -32 55 -7 14 -49 86 -92 160 -43 74 -102
176 -130 225 -142 247 -207 359 -230 395 -14 22 -25 42 -25 45 0 3 -11 22 -23
43 -23 36 -98 165 -255 437 -41 72 -83 144 -93 160 -10 17 -24 41 -32 55 -7
14 -49 86 -92 160 -43 74 -102 176 -130 225 -142 247 -207 359 -230 395 -14
22 -25 42 -25 44 0 3 -26 49 -58 103 -32 54 -86 145 -119 203 -49 86 -149 257
-198 341 -5 10 -17 30 -26 46 -8 15 -51 89 -94 163 -89 154 -155 267 -245 425
-122 213 -179 285 -300 377 -242 185 -603 239 -900 136 -115 -40 -171 -69
-256 -133 -115 -87 -200 -193 -302 -375 -20 -36 -40 -69 -44 -75 -9 -11 -198
-328 -198 -332 0 -1 -39 -66 -86 -145 -48 -79 -96 -159 -106 -178 -22 -39
-136 -230 -265 -443 -46 -75 -83 -140 -83 -143 0 -2 -8 -17 -19 -32 -10 -15
-65 -106 -121 -202 -57 -96 -141 -238 -188 -315 -47 -77 -92 -153 -102 -170
-27 -48 -251 -426 -275 -465 -44 -70 -83 -137 -125 -210 -24 -41 -80 -136
-125 -210 -45 -74 -129 -214 -185 -310 -57 -96 -113 -191 -125 -210 -26 -40
-144 -238 -173 -290 -10 -19 -57 -98 -104 -176 -47 -77 -87 -144 -89 -150 -2
-5 -33 -57 -69 -116 l-64 -107 -121 5 c-66 2 -372 9 -680 14 -308 6 -805 15
-1105 20 -300 5 -950 17 -1445 25 -495 8 -1287 22 -1760 30 -858 15 -1828 30
-2575 40 -217 3 -669 10 -1005 15 -335 5 -943 14 -1350 20 -3394 47 -3145 45
-3145 28 0 -44 -155 -486 -232 -663 -57 -129 -146 -317 -195 -409 -24 -43 -41
-82 -38 -85 2 -4 88 -8 192 -9 386 -5 1660 -30 2633 -52 485 -11 1542 -32
2795 -55 440 -8 881 -17 980 -20 178 -5 1302 -29 1935 -40 179 -3 753 -15
1275 -26 1149 -24 1655 -34 2477 -50 l627 -13 -11 -20 c-14 -28 -205 -352
-233 -396 -18 -28 -84 -138 -180 -302 -18 -31 -107 -181 -144 -243 -20 -34
-41 -70 -48 -80 -58 -99 -240 -405 -299 -503 -41 -67 -74 -127 -74 -132 0 -6
-4 -10 -10 -10 -5 0 -12 -11 -16 -25 -3 -14 -10 -25 -14 -25 -4 0 -10 -8 -14
-17 -3 -10 -10 -25 -16 -33 -23 -35 -120 -200 -120 -205 0 -3 -5 -11 -10 -18
-11 -13 -222 -363 -233 -387 -4 -8 -15 -28 -26 -45 -15 -25 -141 -234 -171
-285 -5 -8 -43 -73 -86 -145 -42 -71 -84 -143 -94 -160 -9 -16 -47 -78 -84
-137 -36 -59 -66 -110 -66 -112 0 -2 -51 -89 -113 -193 -62 -103 -117 -195
-120 -203 -4 -8 -20 -35 -36 -60 -24 -37 -122 -201 -191 -319 -9 -14 -23 -37
-31 -51 -9 -14 -49 -81 -89 -150 -89 -151 -151 -255 -200 -335 -20 -33 -56
-94 -80 -135 -24 -41 -74 -126 -112 -188 -37 -61 -68 -117 -68 -122 0 -6 -4
-10 -10 -10 -5 0 -12 -11 -16 -25 -3 -14 -10 -25 -15 -25 -5 0 -9 -4 -9 -10 0
-5 -31 -61 -70 -124 -38 -64 -70 -118 -70 -121 0 -3 -5 -11 -10 -18 -19 -22
-180 -298 -180 -307 0 -6 -4 -10 -8 -10 -5 0 -18 -19 -31 -42 -24 -46 -24 -46
-130 -221 -39 -65 -71 -123 -71 -128 0 -5 -4 -9 -10 -9 -5 0 -10 -4 -10 -9 0
-8 -129 -231 -188 -326 -65 -104 -104 -168 -137 -230 -21 -38 -43 -74 -47 -80
-12 -15 -178 -295 -178 -301 0 -3 -8 -17 -18 -32 -34 -50 -186 -301 -228 -377
-21 -38 -176 -300 -199 -335 -36 -57 -142 -235 -207 -350 -25 -43 -155 -259
-169 -280 -5 -8 -12 -23 -15 -32 -4 -10 -10 -18 -15 -18 -5 0 -9 -4 -9 -10 0
-5 -31 -60 -68 -122 -38 -62 -72 -120 -75 -128 -4 -8 -15 -28 -26 -45 -106
-172 -161 -266 -161 -275 0 -5 -3 -10 -8 -10 -4 0 -16 -17 -27 -37 -29 -56
-202 -346 -215 -360 -5 -7 -10 -14 -10 -17 0 -3 -25 -46 -55 -96 -30 -50 -55
-92 -55 -95 0 -3 -93 -157 -152 -250 -14 -22 -40 -67 -57 -100 -18 -33 -43
-76 -56 -95 -12 -19 -57 -93 -99 -165 -42 -71 -81 -137 -86 -145 -42 -71 -128
-215 -258 -435 -85 -143 -165 -276 -177 -295 -26 -41 -195 -325 -211 -356 -6
-11 -42 -72 -81 -135 -38 -62 -72 -121 -76 -129 -4 -8 -15 -28 -26 -45 -65
-105 -159 -262 -164 -275 -4 -8 -15 -28 -26 -45 -104 -169 -161 -266 -161
-274 0 -5 -4 -11 -8 -13 -5 -1 -21 -25 -37 -53 -29 -54 -304 -517 -340 -575
-12 -19 -69 -114 -125 -210 -57 -96 -113 -191 -125 -210 -12 -19 -57 -93 -99
-165 -42 -71 -81 -137 -86 -145 -5 -8 -49 -83 -99 -167 -50 -84 -91 -159 -91
-168 0 -21 46 -197 70 -265 30 -87 122 -448 191 -744 16 -71 32 -132 34 -135
7 -6 7 -6 62 89 27 47 61 105 76 130 110 181 298 497 370 620 11 19 27 47 36
61 9 15 31 53 50 85 19 33 38 61 43 62 4 2 8 8 8 14 0 5 20 43 45 84 25 40 45
76 45 79 0 4 11 21 25 39 14 18 25 36 25 40 0 4 14 27 30 51 17 24 30 46 30
49 0 3 95 164 140 236 5 8 27 47 49 85 23 39 54 93 71 120 17 28 33 58 36 68
4 9 10 17 14 17 4 0 11 8 14 18 3 9 12 26 19 37 78 128 117 195 117 204 0 6 3
11 8 11 4 0 16 17 27 38 11 20 62 106 112 190 51 83 93 157 93 162 0 6 3 10 8
10 4 0 16 17 27 38 11 20 40 71 65 112 59 99 54 89 143 242 44 73 101 169 128
213 27 44 53 89 59 100 6 11 42 72 80 135 38 63 86 144 107 180 20 36 61 103
90 149 29 47 53 88 53 92 0 4 18 35 40 68 37 55 122 198 192 322 7 13 16 26
19 29 4 4 24 38 100 170 8 14 19 32 25 40 6 8 22 35 35 60 13 25 34 59 46 76
13 17 23 34 23 38 0 4 14 27 30 51 17 24 30 46 30 49 0 3 95 164 140 236 5 8
27 47 49 85 23 39 54 93 71 120 17 28 33 58 36 68 4 9 10 17 14 17 4 0 11 8
14 18 3 9 12 26 19 37 78 128 117 195 117 204 0 6 3 11 8 11 4 0 16 17 27 38
11 20 61 105 112 189 51 83 93 156 93 162 0 6 4 11 8 11 5 0 18 19 30 43 12
23 46 83 76 132 31 50 72 119 93 155 20 36 41 70 46 75 4 6 29 46 54 90 52 92
106 183 201 341 37 61 80 133 96 160 16 27 101 171 190 319 88 149 166 279
172 290 23 43 39 70 45 75 3 3 29 48 59 100 29 52 59 102 65 110 7 8 23 35 36
60 13 25 34 59 46 76 13 17 23 33 23 36 0 5 158 273 200 338 9 15 75 129 115
200 11 19 29 49 41 65 11 17 24 37 27 45 4 8 17 31 30 51 57 91 107 178 107
188 0 6 4 11 8 11 5 0 19 21 31 46 13 25 43 75 67 111 24 36 44 68 44 71 0 3
20 38 45 78 25 39 45 77 45 83 0 6 3 11 8 11 4 0 16 17 27 38 11 20 41 72 67
115 26 43 48 81 48 83 0 3 18 32 40 64 22 33 44 68 47 77 4 10 11 23 15 28 5
6 28 44 52 85 107 188 159 275 167 278 5 2 9 7 9 11 0 10 78 145 115 201 17
25 34 54 39 65 4 11 31 58 60 105 63 102 124 203 218 365 39 66 78 132 87 146
9 15 31 53 50 85 19 33 37 61 40 64 3 3 13 19 21 35 8 17 19 37 26 45 6 8 22
35 35 60 13 25 34 59 46 76 13 17 23 34 23 38 0 4 8 19 19 34 14 21 119 195
176 293 66 114 85 149 85 158 0 6 3 11 8 11 4 0 16 17 27 38 11 20 29 51 40
67 29 44 44 68 52 85 4 8 31 54 60 101 29 47 53 91 53 97 0 7 4 12 8 12 4 0
23 29 42 65 19 36 38 65 42 65 4 0 8 4 8 9 0 5 31 61 70 125 38 63 70 120 70
125 0 6 3 11 8 11 4 0 16 17 27 38 11 20 41 72 67 115 26 43 48 81 48 83 0 3
18 32 40 64 22 33 43 68 47 77 4 10 14 29 23 43 9 14 43 70 75 125 103 178
129 220 137 223 4 2 8 7 8 11 0 5 22 46 50 92 27 46 62 106 77 132 16 27 52
87 81 134 29 47 63 104 76 127 12 22 58 100 101 171 43 72 86 144 95 160 60
103 120 202 129 212 6 7 11 16 11 21 0 5 10 24 23 43 13 19 34 54 47 78 14 25
44 74 68 110 23 36 42 71 42 78 0 7 5 13 10 13 6 0 10 4 10 9 0 7 81 146 140
241 35 56 80 140 80 149 0 6 3 11 8 11 4 0 16 17 27 38 10 20 29 51 42 69 13
17 23 36 23 42 0 6 3 11 8 11 4 0 16 17 27 38 10 20 38 69 62 108 24 39 43 76
43 82 0 7 4 12 8 12 4 0 23 29 42 65 19 36 38 65 42 65 4 0 8 4 8 10 0 5 32
61 70 124 39 62 70 118 70 125 0 6 3 11 8 11 4 0 16 17 27 38 11 20 41 72 67
115 26 43 48 80 48 82 0 2 13 23 28 47 16 24 38 59 48 78 10 19 22 37 25 40 3
3 21 34 40 70 18 36 48 86 66 111 18 26 33 51 33 56 0 5 20 40 45 77 25 38 45
70 45 71 0 1 21 38 48 82 26 44 60 102 76 129 85 145 100 169 105 174 4 3 19
30 35 60 16 30 50 89 76 130 26 41 95 156 153 255 59 99 110 185 115 190 4 6
14 25 21 43 7 17 16 32 20 32 3 0 19 26 36 58 16 31 32 59 36 62 4 3 15 21 26
40 10 19 31 54 46 77 15 24 27 44 27 47 0 2 18 34 40 70 22 36 40 70 40 75 0
5 4 11 9 13 4 2 19 22 32 45 13 23 50 87 82 142 32 56 62 99 68 96 5 -3 6 1 3
9 -3 8 6 30 20 49 14 19 26 39 26 45 0 7 3 12 8 12 4 0 16 17 27 38 10 20 38
69 62 108 24 39 43 76 43 82 0 7 3 12 8 12 4 0 16 17 27 38 30 58 99 167 107
170 4 2 8 8 8 14 0 6 20 43 45 82 25 40 45 78 45 84 0 7 4 12 9 12 6 0 24 20
42 45 20 28 38 44 46 40 8 -2 11 -1 8 5 -5 8 47 70 60 70 3 0 29 17 58 39 62
46 215 109 312 128 116 22 341 13 410 -16 11 -5 56 -23 100 -41 143 -59 275
-163 345 -270 16 -25 33 -49 38 -55 4 -5 18 -30 31 -55 13 -25 26 -47 30 -50
3 -3 16 -23 28 -45 29 -55 52 -96 112 -199 28 -49 51 -92 51 -97 0 -4 4 -9 8
-11 5 -1 21 -24 35 -50 67 -119 82 -146 115 -197 31 -48 33 -57 22 -75 -12
-19 -12 -20 3 -7 14 11 18 10 28 -13 7 -14 16 -26 20 -26 4 0 10 -13 14 -30 4
-16 10 -32 15 -35 5 -3 19 -26 31 -50 12 -25 26 -45 31 -45 4 0 8 -4 8 -8 0
-10 117 -221 134 -242 7 -8 28 -45 46 -82 19 -38 38 -68 42 -68 4 0 8 -5 8
-12 0 -6 20 -44 45 -84 25 -39 45 -75 45 -79 0 -4 10 -21 23 -38 12 -18 30
-48 41 -67 27 -50 56 -103 115 -204 28 -49 51 -91 51 -94 0 -3 6 -13 14 -21 8
-9 24 -34 36 -56 13 -22 34 -60 48 -85 14 -25 41 -69 60 -99 31 -48 33 -57 22
-75 -12 -19 -12 -20 3 -7 14 11 18 10 28 -13 7 -14 16 -26 20 -26 4 0 10 -13
14 -29 3 -16 13 -35 21 -42 8 -6 14 -16 14 -21 0 -6 10 -24 22 -41 12 -17 29
-45 38 -61 40 -75 113 -202 124 -216 7 -8 28 -45 46 -82 19 -38 38 -68 42 -68
4 0 8 -5 8 -12 0 -6 20 -44 45 -84 25 -39 45 -75 45 -79 0 -5 11 -23 25 -41
14 -18 25 -35 25 -37 0 -3 41 -76 90 -162 50 -86 90 -159 90 -162 0 -2 11 -19
24 -36 22 -29 40 -61 102 -177 11 -19 22 -37 25 -40 3 -3 21 -32 39 -65 18
-33 36 -62 39 -65 3 -3 17 -27 30 -55 14 -27 35 -64 48 -82 13 -17 23 -33 23
-36 0 -7 121 -222 134 -237 7 -8 28 -45 46 -82 19 -38 38 -68 42 -68 4 0 8 -5
8 -12 0 -6 20 -44 45 -84 25 -39 45 -77 45 -83 0 -6 4 -11 9 -11 5 0 11 -8 15
-17 3 -10 15 -34 27 -53 11 -19 53 -91 92 -160 39 -69 74 -126 79 -128 4 -2 8
-12 8 -22 0 -10 4 -20 8 -22 9 -3 82 -121 82 -132 0 -3 15 -29 34 -58 18 -29
48 -80 66 -113 18 -33 36 -62 39 -65 3 -3 24 -40 46 -82 21 -43 43 -78 47 -78
4 0 8 -4 8 -8 0 -10 130 -245 139 -252 4 -3 22 -35 41 -72 19 -38 38 -68 42
-68 4 0 8 -5 8 -11 0 -6 24 -50 53 -97 29 -48 57 -94 60 -102 4 -8 17 -31 28
-50 11 -19 53 -91 92 -160 39 -69 74 -126 79 -128 4 -2 8 -12 8 -22 0 -10 4
-20 8 -22 9 -3 82 -121 82 -132 0 -3 15 -29 34 -58 18 -29 48 -80 66 -113 18
-33 36 -62 39 -65 3 -3 24 -40 46 -82 21 -43 43 -78 47 -78 4 0 8 -4 8 -10 0
-5 20 -44 45 -86 25 -41 45 -79 45 -83 0 -5 13 -26 28 -47 15 -21 43 -69 62
-106 19 -38 38 -68 42 -68 4 0 8 -5 8 -11 0 -6 24 -50 53 -97 29 -48 57 -94
60 -102 4 -8 17 -31 28 -50 11 -19 53 -91 92 -160 39 -69 74 -126 79 -128 4
-2 8 -12 8 -22 0 -10 4 -20 8 -22 9 -3 82 -121 82 -132 0 -3 15 -29 34 -58 18
-29 48 -80 66 -113 18 -33 36 -62 39 -65 3 -3 24 -40 46 -82 21 -43 43 -78 47
-78 4 0 8 -4 8 -8 0 -11 117 -222 134 -242 7 -8 26 -40 42 -70 39 -73 44 -80
107 -185 29 -49 57 -97 60 -105 4 -8 17 -31 28 -50 11 -19 53 -91 92 -160 39
-69 74 -126 79 -128 4 -2 8 -8 8 -12 0 -5 20 -43 45 -83 25 -41 45 -77 45 -81
0 -3 15 -29 34 -58 18 -29 48 -80 66 -113 18 -33 36 -62 39 -65 3 -3 24 -40
46 -82 21 -43 43 -78 47 -78 4 0 8 -4 8 -8 0 -11 130 -245 140 -252 3 -3 20
-30 36 -60 44 -80 84 -150 109 -190 12 -19 32 -56 45 -82 13 -27 27 -48 32
-48 4 0 8 -4 8 -9 0 -13 122 -225 132 -229 4 -2 8 -9 8 -15 0 -6 29 -59 65
-118 36 -58 65 -109 65 -112 0 -3 22 -41 48 -84 26 -43 56 -95 67 -115 11 -21
23 -38 27 -38 5 0 8 -5 8 -11 0 -9 49 -100 80 -149 29 -44 154 -265 186 -325
20 -38 40 -71 45 -73 5 -2 9 -8 9 -13 0 -5 17 -37 38 -71 21 -35 49 -84 62
-110 13 -27 27 -48 32 -48 4 0 8 -4 8 -9 0 -13 122 -225 132 -229 4 -2 8 -9 8
-16 0 -7 14 -34 31 -61 31 -48 161 -271 207 -355 14 -25 29 -46 34 -48 4 -2 8
-8 8 -14 0 -8 46 -93 80 -148 33 -53 100 -173 100 -179 0 -5 13 -26 29 -49 17
-22 44 -69 62 -104 17 -34 35 -64 40 -66 5 -2 9 -8 9 -14 0 -6 17 -38 38 -72
21 -34 49 -82 62 -108 13 -27 27 -48 32 -48 4 0 8 -4 8 -10 0 -5 14 -33 31
-62 18 -29 43 -73 57 -98 13 -25 30 -52 37 -60 6 -8 15 -24 19 -35 4 -11 31
-58 60 -105 48 -78 113 -189 174 -300 14 -25 29 -46 34 -48 4 -2 8 -8 8 -14 0
-8 50 -100 80 -148 28 -44 154 -264 186 -325 20 -38 39 -72 43 -75 7 -5 82
-137 116 -202 11 -21 23 -38 27 -38 5 0 8 -5 8 -10 0 -6 18 -40 40 -76 22 -36
40 -68 40 -70 0 -3 12 -23 27 -47 15 -23 34 -53 41 -67 7 -14 18 -34 25 -45
71 -120 187 -320 212 -367 11 -21 23 -38 27 -38 5 0 8 -5 8 -11 0 -9 32 -68
85 -157 21 -35 141 -244 180 -312 22 -39 70 -123 108 -187 37 -64 67 -120 67
-124 0 -5 5 -9 10 -9 6 0 10 -5 10 -10 0 -6 18 -40 40 -76 22 -36 40 -68 40
-70 0 -3 12 -23 27 -47 15 -23 34 -53 41 -67 7 -14 18 -34 25 -45 64 -108 161
-275 202 -350 16 -27 31 -52 34 -55 3 -3 21 -34 40 -70 19 -36 40 -72 47 -81
8 -8 14 -18 14 -22 0 -4 20 -41 45 -83 25 -41 45 -78 45 -81 0 -2 13 -23 28
-46 16 -23 44 -71 63 -107 18 -36 36 -67 39 -70 3 -3 11 -15 17 -27 65 -117
114 -200 123 -210 5 -7 10 -14 10 -17 0 -3 14 -29 31 -58 18 -29 43 -73 57
-98 13 -25 31 -52 38 -61 8 -8 14 -19 14 -22 0 -4 29 -56 63 -115 80 -134 137
-232 172 -297 16 -27 31 -52 34 -55 3 -3 21 -34 40 -70 19 -36 40 -72 47 -81
8 -8 14 -18 14 -22 0 -3 30 -57 67 -119 36 -62 115 -198 174 -303 60 -104 113
-195 119 -202 5 -7 10 -16 10 -22 0 -5 3 -11 8 -13 4 -1 15 -19 24 -38 28 -57
83 -149 96 -162 7 -7 12 -16 12 -20 0 -5 29 -57 63 -116 93 -156 159 -272 182
-314 11 -21 23 -38 27 -38 5 0 8 -4 8 -10 0 -5 17 -39 38 -75 50 -89 45 -81
177 -305 18 -30 45 -77 59 -105 15 -27 58 -103 96 -169 39 -65 70 -122 70
-127 0 -5 5 -9 10 -9 6 0 10 -6 10 -14 0 -8 3 -16 8 -18 4 -1 16 -21 28 -43
36 -69 76 -139 89 -155 7 -8 18 -30 26 -47 8 -18 17 -33 21 -33 5 0 8 -5 8
-10 0 -6 17 -39 38 -73 37 -59 106 -179 160 -277 14 -25 29 -46 34 -48 4 -2 8
-8 8 -12 0 -8 42 -86 89 -165 26 -43 117 -201 241 -415 58 -102 113 -196 121
-210 8 -14 17 -27 20 -30 3 -3 29 -48 58 -100 28 -52 63 -113 77 -135 13 -22
27 -47 31 -55 4 -8 27 -49 53 -90 116 -189 150 -343 120 -540 -11 -71 -12 -73
-59 -175 -64 -137 -171 -259 -291 -332 -95 -58 -139 -76 -262 -108 -116 -30
24 -30 -3308 0 -316 3 -1133 10 -1815 15 -682 6 -1789 15 -2460 20 -671 5
-1791 14 -2490 20 -698 5 -1493 12 -1765 15 -272 3 -769 7 -1105 10 -1603 13
-2025 16 -3170 25 -1804 15 -4725 39 -6025 50 -624 5 -1774 15 -2555 21 -781
6 -1421 13 -1423 14 -2 2 53 138 93 230 8 17 23 62 35 100 12 39 28 84 35 101
26 61 100 342 140 529 116 555 163 1302 120 1930 -22 333 -69 775 -105 985
-70 414 -88 500 -104 506 -14 5 -227 40 -286 48 -25 3 -162 21 -305 40 -290
38 -496 61 -690 76 -71 5 -191 15 -265 21 -74 6 -203 14 -287 17 l-151 7 -17
-115 c-16 -111 -32 -204 -76 -450 -29 -160 -101 -454 -144 -585 -35 -108 -83
-217 -97 -223 -5 -2 -8 -8 -8 -13 0 -20 -58 -88 -95 -112 -34 -22 -46 -24 -83
-17 -51 9 -74 28 -117 95 -69 106 -122 274 -245 775 -65 266 -117 464 -160
620 -10 36 -30 108 -45 160 -29 107 -139 456 -160 510 -8 19 -30 80 -51 135
-49 134 -68 181 -94 240 -12 28 -38 86 -57 130 -82 186 -221 451 -317 605 -25
41 -52 84 -59 95 -43 70 -245 343 -277 375 -3 3 -34 39 -70 80 -83 96 -204
217 -300 300 -41 36 -77 68 -80 71 -3 3 -52 41 -110 83 -58 43 -112 83 -121
89 -8 7 -24 17 -35 24 -10 7 -59 38 -109 69 -146 93 -346 192 -585 289 -58 24
-139 57 -180 75 -246 104 -640 231 -955 308 -168 42 -261 60 -605 122 -58 11
-285 40 -308 40 -9 0 -11 -10 -7 -37 10 -61 34 -170 62 -282 l26 -105 -54 -49
c-132 -122 -304 -230 -458 -290 -207 -80 -466 -116 -712 -98 -405 30 -818 171
-1329 456 -58 32 -107 60 -109 61 -2 2 2 54 7 116 6 62 13 138 14 168 l3 55
-40 -3 c-73 -5 -668 -82 -800 -103 -71 -12 -220 -37 -330 -56 -110 -18 -297
-45 -415 -58 -317 -36 -657 -92 -855 -140 -33 -8 -109 -26 -170 -40 -153 -37
-352 -94 -551 -159 -241 -79 -746 -274 -912 -351 -29 -14 -55 -25 -58 -25 -3
0 -33 -13 -67 -29 -34 -15 -102 -45 -152 -66 -49 -20 -99 -41 -110 -46 -211
-92 -653 -259 -686 -259 -3 0 -7 32 -8 70 -1 39 -15 199 -31 358 -35 341 -37
408 -10 494 43 140 98 202 651 738 246 239 725 715 919 913 l74 77 -23 47
c-57 120 -269 439 -396 599 -111 139 -346 386 -485 509 -79 70 -239 195 -322
252 -29 20 -55 39 -58 42 -3 3 -17 12 -33 20 -29 15 -44 11 -117 -33 -112 -68
-232 -136 -240 -136 -6 0 -10 -4 -10 -8 0 -5 -15 -16 -32 -25 -18 -9 -54 -29
-79 -44 -25 -16 -67 -41 -95 -58 -27 -16 -51 -32 -54 -36 -3 -3 -16 -12 -30
-19 -27 -14 -380 -249 -520 -345 -189 -131 -479 -345 -639 -474 -51 -42 -105
-85 -120 -96 -25 -19 -228 -189 -282 -237 -15 -13 -50 -43 -78 -67 -29 -24
-78 -67 -109 -97 -31 -29 -58 -51 -59 -50 -2 2 -3 2171 -3 4822 0 5314 -5
4889 64 5135 55 194 115 327 219 484 212 318 491 545 835 678 23 10 59 24 80
32 53 21 181 52 297 71 76 13 156 16 338 15 130 0 237 1 237 3 0 3 -20 46 -44
98 -80 172 -114 252 -174 413 -62 167 -135 386 -147 444 l-7 34 -342 -6 c-497
-10 -715 -42 -1046 -154 -259 -88 -557 -239 -737 -374 -138 -102 -162 -121
-218 -171 -120 -106 -199 -185 -273 -273 -42 -49 -79 -92 -82 -95 -22 -19
-145 -192 -208 -293 -178 -286 -321 -655 -382 -982 -47 -258 -44 191 -50
-6335 -4 -4511 -9 -6077 -17 -6110 -7 -25 -19 -112 -29 -195 -21 -188 -14
-406 18 -580 l23 -120 6 -6730 c4 -5045 8 -6756 17 -6835 32 -288 103 -615
188 -865 24 -71 48 -139 53 -150 5 -11 22 -51 36 -90 104 -270 296 -609 503
-885 198 -266 461 -528 772 -773 50 -39 132 -98 180 -128 30 -20 91 -58 135
-86 356 -227 836 -416 1279 -503 355 -70 407 -73 1811 -105 143 -3 418 -10
610 -15 193 -5 474 -12 626 -16 l276 -6 7 -662 c7 -724 20 -1334 36 -1748 5
-148 15 -391 20 -540 6 -150 15 -356 20 -458 5 -102 14 -273 20 -380 29 -556
61 -1086 70 -1170 5 -52 14 -174 20 -270 12 -204 35 -526 50 -690 5 -63 14
-173 20 -245 6 -71 19 -229 30 -350 10 -121 26 -303 35 -405 9 -102 22 -248
30 -325 8 -77 19 -185 24 -240 25 -259 114 -1098 136 -1280 8 -66 26 -219 40
-340 59 -496 132 -1065 201 -1550 20 -137 42 -295 50 -350 7 -55 21 -143 29
-195 8 -52 20 -126 25 -165 10 -69 36 -232 66 -410 8 -49 21 -128 29 -175 24
-153 76 -444 81 -451 2 -4 8 -35 13 -70 21 -134 109 -543 127 -586 39 -95 133
-163 264 -190 69 -15 134 -18 340 -18 271 1 368 11 508 58 129 42 205 132 216
255 8 103 15 518 26 1562 25 2442 80 4819 140 6055 6 116 15 320 20 455 18
448 96 1793 125 2160 8 102 21 282 30 400 8 118 19 262 25 320 5 58 14 161 20
230 19 229 50 553 65 690 8 74 19 182 25 240 12 135 63 560 66 557 1 -1 14
-132 28 -292 14 -159 33 -353 41 -430 8 -77 22 -205 30 -285 38 -377 127
-1124 185 -1545 17 -121 39 -285 50 -365 21 -152 30 -216 79 -545 43 -284 55
-361 96 -615 20 -124 40 -250 45 -280 5 -30 23 -138 40 -240 18 -102 36 -210
40 -240 5 -30 27 -156 50 -280 23 -124 45 -250 50 -280 9 -60 61 -340 110
-595 17 -88 35 -182 40 -210 15 -87 110 -568 121 -615 6 -25 21 -99 34 -165
63 -316 134 -653 205 -975 22 -102 56 -255 75 -340 19 -85 59 -263 89 -395 30
-132 69 -301 85 -375 17 -74 40 -171 51 -215 11 -44 33 -136 49 -205 23 -98
140 -578 166 -685 8 -31 173 -677 205 -800 15 -60 53 -202 83 -315 31 -113 67
-248 81 -300 13 -52 40 -151 60 -220 19 -69 43 -159 55 -200 11 -41 45 -163
76 -270 31 -107 60 -208 65 -225 4 -16 17 -66 29 -110 61 -226 164 -322 357
-333 240 -13 780 86 1077 197 93 35 141 69 166 119 32 63 34 94 11 189 -61
258 -144 663 -215 1048 -9 50 -23 122 -31 160 -7 39 -25 144 -39 235 -14 91
-32 199 -40 240 -8 41 -19 107 -24 145 -5 39 -21 147 -35 240 -42 281 -116
819 -141 1030 -22 185 -47 405 -61 530 -8 83 -19 179 -24 215 -5 36 -16 139
-25 230 -8 91 -20 203 -25 250 -5 47 -19 184 -30 305 -11 121 -27 288 -35 370
-40 427 -69 781 -110 1374 -8 118 -17 235 -20 260 -19 159 -107 1718 -140
2461 -8 184 -17 380 -20 435 -7 125 -21 510 -55 1475 -11 330 -40 1417 -40
1525 l0 70 247 -7 c258 -7 822 -18 2173 -43 437 -8 1151 -22 1585 -30 1033
-20 4012 -72 4510 -80 215 -3 602 -10 860 -15 259 -5 778 -14 1155 -21 377 -6
849 -14 1050 -17 l365 -7 -3 -45 c-2 -25 -19 -182 -38 -350 -19 -168 -48 -429
-64 -580 -16 -151 -37 -331 -45 -400 -8 -69 -31 -269 -50 -445 -20 -176 -51
-462 -70 -635 -19 -173 -57 -515 -85 -760 -28 -245 -66 -589 -85 -765 -19
-176 -37 -336 -40 -355 -3 -19 -21 -179 -40 -355 -19 -176 -46 -421 -60 -545
-14 -124 -32 -283 -40 -355 -8 -71 -37 -332 -65 -580 -28 -247 -66 -594 -85
-770 -20 -176 -42 -372 -50 -435 -8 -63 -28 -243 -45 -400 -17 -157 -37 -337
-45 -400 -8 -63 -22 -190 -32 -283 -9 -92 -20 -172 -23 -177 -4 -6 -127 -14
-306 -20 -771 -24 -989 -31 -1254 -40 -157 -6 -436 -15 -620 -20 -1425 -43
-1374 -40 -1510 -74 -287 -73 -526 -268 -599 -489 -23 -68 -289 -1115 -302
-1187 -67 -374 233 -714 716 -811 101 -20 21784 -21 21885 -1 116 24 233 63
310 104 223 120 357 278 405 476 29 119 18 209 -55 462 -34 118 -73 253 -85
300 -13 47 -49 173 -80 280 -32 107 -65 224 -75 260 -9 36 -26 97 -38 135 -35
116 -102 352 -142 500 -43 162 -50 177 -107 265 -133 204 -384 346 -673 380
-116 14 -76 15 -1970 -43 -608 -19 -1115 -35 -1127 -35 -16 0 -22 8 -26 32 -2
17 -16 101 -30 186 -51 299 -95 640 -117 910 -6 74 -13 146 -16 160 -7 45 -33
641 -34 784 0 132 -16 265 -55 466 -18 90 -42 239 -56 335 -5 39 -16 104 -24
145 -8 41 -24 130 -35 198 -64 387 -97 581 -124 742 -14 80 -33 190 -41 245
-9 55 -22 136 -30 180 -21 112 -124 726 -136 805 -5 36 -12 72 -14 80 -3 8
-11 58 -19 110 -8 52 -27 163 -41 245 -15 83 -32 188 -40 235 -7 47 -43 261
-80 475 -36 215 -70 415 -75 445 -4 30 -15 98 -24 150 -19 105 -45 259 -76
450 -11 69 -27 159 -35 200 -31 159 -69 420 -62 426 4 4 391 2 860 -4 468 -7
1053 -15 1299 -18 l446 -6 23 43 c12 24 25 46 29 49 3 3 10 12 14 20 10 23 29
53 57 96 14 22 56 86 93 144 76 120 64 102 156 240 39 58 74 110 78 115 4 6
39 55 76 110 38 55 107 150 153 212 46 62 83 116 83 121 0 6 6 12 13 15 7 3
26 24 42 48 17 24 33 46 36 49 3 3 20 24 36 48 47 65 425 537 443 552 3 3 30
34 60 70 30 36 111 128 180 205 69 77 129 146 135 153 5 7 18 21 28 31 18 18
15 19 -95 25 -62 3 -324 8 -583 11 -258 3 -823 12 -1255 20 -1194 22 -1844 33
-2890 50 -1179 18 -1967 32 -2645 45 -453 9 -1546 27 -2660 45 -569 9 -1471
24 -2030 35 -563 11 -1293 23 -2370 40 -363 6 -1029 17 -1480 25 -1728 31
-1957 35 -2890 50 -1160 18 -1956 32 -2650 45 -459 9 -1644 29 -2665 45 -662
10 -1519 25 -2025 35 -280 6 -791 14 -1135 20 -344 5 -745 12 -892 16 l-268 7
0 69 0 69 153 -5 c83 -3 319 -8 522 -11 1167 -17 3127 -49 3935 -65 491 -10
1201 -21 3275 -55 512 -8 1155 -20 1430 -25 511 -10 1204 -22 2365 -40 360 -6
1022 -17 1470 -25 1251 -23 1850 -33 2895 -50 1210 -19 1989 -32 2645 -45 491
-10 1206 -22 3275 -55 512 -8 1155 -20 1430 -25 500 -10 1131 -21 2365 -40
360 -6 1148 -19 1750 -30 602 -11 1112 -20 1133 -20 34 0 45 8 125 92 151 158
635 638 644 638 4 0 8 7 8 15 0 13 -28 15 -187 15 -104 0 -685 7 -1293 15
-608 8 -1467 19 -1910 25 -1965 24 -2611 32 -4120 51 -883 11 -1949 24 -2370
29 -963 12 -2071 25 -4110 51 -883 11 -1949 24 -2370 29 -924 11 -1981 24
-4110 51 -883 11 -1949 24 -2370 29 -2166 26 -5684 70 -6138 77 -370 5 -445 9
-449 20 -3 8 -1 355 6 771 9 632 16 825 39 1167 l27 410 44 24 c65 35 125 104
150 167 23 62 27 139 11 244 -21 139 -40 518 -40 800 0 541 47 1087 155 1800
18 119 100 568 115 633 6 23 24 110 40 192 17 83 42 197 55 255 13 58 40 175
60 260 37 161 73 303 131 525 19 72 48 182 65 245 17 63 42 153 56 200 13 47
31 110 40 140 29 107 129 446 163 550 10 30 32 102 50 160 17 58 41 131 52
163 l21 57 31 -37 c166 -197 433 -473 605 -623 41 -36 79 -70 85 -75 6 -6 58
-48 116 -93 58 -46 113 -89 122 -97 40 -33 310 -215 319 -215 5 0 9 -4 9 -10
0 -5 5 -10 11 -10 6 0 30 -14 54 -30 24 -17 46 -30 49 -30 3 0 34 -17 68 -38
77 -47 317 -167 413 -207 39 -16 93 -38 120 -51 81 -35 202 -78 455 -159 99
-32 392 -106 511 -129 403 -80 747 -69 1058 34 140 45 344 150 417 213 23 20
249 19 3529 -13 561 -5 1900 -17 2975 -25 1075 -9 3053 -25 4395 -36 1342 -11
2955 -24 3585 -29 630 -5 1699 -14 2375 -20 677 -5 1835 -14 2575 -20 740 -6
1847 -15 2460 -20 613 -6 1642 -15 2285 -20 644 -5 1726 -14 2405 -21 1550
-14 1671 -11 1785 40 122 56 181 85 183 92 2 5 8 9 14 9 16 0 87 58 154 126
161 162 239 349 238 574 0 89 -5 134 -24 200 -27 98 -35 116 -137 293 -42 73
-89 155 -105 182 -16 28 -33 57 -38 65 -10 16 -208 358 -304 525 -32 55 -61
107 -67 115 -12 20 -123 212 -214 370 -97 169 -221 383 -261 450 -18 30 -44
78 -59 105 -15 28 -53 93 -85 145 -31 52 -100 172 -154 265 -53 94 -101 177
-106 185 -6 8 -40 67 -76 130 -37 63 -89 153 -115 199 -27 46 -49 85 -49 87 0
2 -24 43 -53 91 -29 48 -88 149 -130 223 -43 74 -82 142 -87 150 -12 19 -203
348 -234 404 -13 23 -47 83 -77 134 -30 51 -58 100 -64 110 -5 10 -37 64 -70
120 -66 113 -114 196 -165 287 -18 33 -50 87 -70 120 -20 33 -71 121 -114 195
-42 74 -81 142 -86 150 -6 8 -25 42 -43 75 -19 33 -72 125 -119 205 -70 121
-170 292 -213 368 -5 10 -37 64 -70 120 -66 113 -114 196 -165 287 -18 33 -50
87 -70 120 -31 52 -142 243 -219 378 -13 23 -54 94 -91 157 -82 140 -243 418
-278 480 -13 25 -52 92 -86 150 -64 108 -97 165 -136 235 -31 55 -153 265
-204 350 -23 39 -46 77 -50 85 -4 8 -12 24 -19 35 -7 11 -39 67 -72 123 -33
57 -64 111 -70 120 -5 10 -56 98 -113 197 -57 99 -108 187 -113 195 -24 40
-195 337 -240 417 -12 21 -53 92 -91 158 -39 66 -89 152 -111 190 -22 39 -47
81 -56 95 -9 14 -22 36 -29 49 -7 14 -36 64 -65 113 -29 49 -56 97 -62 106
-11 19 -214 373 -230 400 -35 61 -145 252 -173 300 -19 31 -45 77 -59 102 -28
49 -136 235 -216 370 -28 47 -64 110 -80 140 -17 30 -56 98 -87 150 -44 74
-182 312 -265 458 -25 43 -143 248 -173 300 -19 31 -45 77 -59 102 -14 25 -57
99 -95 165 -39 66 -89 152 -111 190 -22 39 -47 81 -56 95 -8 14 -26 45 -40 70
-13 25 -52 92 -86 150 -52 87 -219 373 -259 445 -26 45 -140 244 -173 300 -19
33 -46 80 -60 105 -14 25 -57 99 -95 165 -39 66 -89 152 -111 190 -22 39 -47
81 -56 95 -8 14 -26 45 -40 70 -13 25 -49 88 -81 140 -31 52 -101 173 -156
268 -54 95 -110 192 -124 215 -14 24 -42 74 -64 112 -21 39 -49 86 -61 105
-21 33 -37 61 -95 165 -25 44 -134 232 -213 365 -28 47 -63 108 -78 135 -15
28 -68 120 -118 205 -49 85 -89 156 -87 157 2 3 494 -65 1009 -139 102 -15 84
6 186 -208 88 -183 198 -387 286 -533 24 -40 54 -91 66 -114 13 -24 26 -43 31
-43 4 0 8 -6 8 -13 0 -8 11 -29 26 -48 14 -19 52 -77 86 -129 54 -84 292 -417
307 -430 3 -3 44 -52 91 -110 78 -98 241 -289 300 -352 14 -16 29 -28 35 -28
5 1 183 171 394 379 l383 378 42 -8 c22 -4 127 -24 231 -44 105 -20 255 -49
335 -65 80 -16 231 -45 335 -64 105 -20 233 -45 285 -56 106 -22 333 -66 699
-135 260 -50 275 -50 317 -4 24 26 23 44 -26 514 -23 220 -48 463 -55 540 -30
302 -46 451 -50 475 -3 14 -11 97 -20 185 -8 88 -21 223 -30 300 -8 77 -22
210 -31 295 -8 85 -22 216 -30 290 -8 74 -14 147 -14 161 0 23 23 44 158 143
86 64 164 122 172 129 8 7 31 23 50 37 19 13 37 27 40 30 6 6 89 68 175 131
33 24 65 47 70 51 10 9 47 36 285 212 80 59 156 116 170 127 14 11 87 66 163
122 77 56 295 218 485 361 190 142 358 266 372 275 24 14 53 15 236 9 2163
-71 2334 -77 2624 -88 140 -5 378 -13 529 -17 353 -8 342 -18 240 207 -33 74
-80 177 -105 228 -24 51 -44 95 -44 97 0 2 -25 57 -56 122 -31 65 -90 192
-131 283 -42 91 -89 192 -104 224 -16 33 -27 61 -25 64 3 2 182 -1 399 -7 216
-6 474 -11 573 -11 98 0 189 -3 201 -6 12 -3 24 -17 27 -30 7 -25 30 -76 132
-292 30 -62 54 -115 54 -116 0 -2 22 -50 49 -107 103 -221 115 -246 138 -299
33 -74 128 -281 163 -355 35 -75 90 -192 165 -355 32 -69 84 -181 116 -249 33
-68 59 -125 59 -128 0 -5 94 -210 155 -338 23 -49 42 -91 41 -93 -2 -1 -200 5
-442 13 -934 32 -1331 46 -1934 65 -344 11 -737 24 -873 30 -136 5 -295 10
-352 10 l-105 0 -278 -206 c-343 -256 -384 -287 -397 -297 -36 -29 -448 -335
-485 -360 -25 -17 -56 -41 -70 -54 -14 -13 -28 -23 -32 -23 -3 0 -13 -6 -20
-13 -7 -7 -60 -47 -118 -90 -58 -43 -112 -84 -120 -90 -8 -7 -31 -23 -50 -37
-19 -14 -42 -30 -50 -37 -42 -33 -147 -111 -161 -119 -9 -5 -32 -21 -50 -36
-58 -47 -132 -103 -184 -138 -53 -36 -71 -50 -117 -90 l-29 -25 16 -155 c8
-85 18 -166 20 -180 5 -25 58 -545 75 -739 5 -58 14 -139 20 -180 5 -42 16
-152 25 -246 8 -93 17 -181 20 -195 3 -14 11 -97 20 -185 8 -88 22 -221 30
-295 8 -74 22 -202 30 -285 8 -82 20 -198 27 -257 7 -59 9 -110 6 -113 -5 -6
-479 81 -658 120 -36 8 -162 33 -280 56 -207 39 -538 103 -875 169 -213 42
-360 69 -417 77 l-46 6 -387 -385 c-377 -374 -387 -386 -401 -439 -8 -30 -37
-142 -65 -249 -28 -107 -56 -214 -64 -236 -8 -23 -39 -138 -69 -255 -30 -118
-75 -290 -101 -384 -146 -537 -144 -523 -96 -578 16 -18 143 -109 283 -202
139 -94 255 -173 258 -176 3 -4 19 -15 36 -25 17 -11 123 -81 235 -157 112
-75 281 -188 374 -251 94 -63 175 -118 181 -123 5 -4 17 -12 26 -18 9 -5 84
-56 166 -112 82 -56 164 -108 180 -117 52 -27 100 -21 162 21 30 21 57 40 60
43 3 3 52 41 110 83 58 43 114 85 124 94 10 8 82 62 160 120 78 57 148 110
158 118 9 7 61 46 115 87 54 40 100 75 103 78 3 3 21 17 40 30 19 13 58 42 86
64 28 23 63 50 78 61 15 11 91 68 169 126 l141 107 140 -50 c131 -47 321 -108
441 -143 28 -8 73 -21 100 -29 66 -19 231 -60 330 -81 44 -9 107 -23 140 -30
33 -8 103 -21 155 -30 52 -9 120 -20 150 -25 30 -5 89 -15 130 -21 41 -6 102
-15 135 -20 60 -9 546 -49 597 -49 22 0 34 -12 72 -75 25 -42 46 -78 46 -80 0
-3 29 -53 64 -112 52 -89 259 -446 300 -518 46 -81 146 -254 187 -324 27 -46
49 -86 49 -88 0 -2 20 -36 44 -76 63 -104 94 -158 113 -194 9 -18 35 -42 59
-55 40 -21 47 -21 106 -11 234 43 339 63 378 72 25 5 92 19 150 30 58 11 224
43 370 70 146 28 308 60 360 71 52 11 191 38 308 60 117 22 230 44 250 49 20
5 71 15 112 21 129 21 165 55 181 168 5 37 36 256 69 487 32 231 82 587 111
792 l52 372 26 6 c26 7 404 194 471 233 19 11 62 35 95 53 33 17 71 39 85 49
14 9 32 20 40 23 8 4 31 17 52 29 20 13 76 47 125 77 82 50 432 287 443 300 3
4 50 40 105 81 123 92 235 181 295 234 25 23 73 64 105 92 33 28 80 70 105 93
25 22 52 41 60 41 8 0 47 -9 85 -20 39 -12 149 -42 245 -67 96 -25 204 -54
240 -64 86 -23 239 -64 379 -100 62 -16 116 -31 120 -33 4 -3 79 -23 166 -46
88 -23 194 -51 235 -62 254 -69 261 -67 368 95 37 56 69 104 72 107 3 3 55 79
115 170 61 91 113 167 116 170 4 3 15 19 25 37 11 17 81 123 156 235 76 111
189 280 252 373 63 94 118 175 123 181 4 5 13 18 18 27 6 9 58 88 117 174 59
87 110 170 113 186 12 47 -4 93 -58 165 -107 142 -691 917 -699 927 -5 6 -52
69 -105 140 -53 72 -102 135 -107 142 -28 31 -37 44 -55 73 l-19 32 25 67
c177 466 334 1112 402 1656 14 107 40 431 43 530 l2 80 56 36 c30 19 62 38 70
42 8 4 24 13 35 20 24 14 55 32 280 162 216 125 316 183 335 195 8 6 22 13 30
17 8 4 38 20 65 36 77 46 301 175 388 224 43 24 96 55 117 68 22 14 44 25 49
25 5 0 11 3 13 8 2 4 17 14 33 23 17 10 40 37 54 64 23 44 24 52 13 104 -6 31
-25 130 -42 221 -17 91 -37 192 -45 225 -7 33 -16 78 -19 100 l-7 40 27 -30
c33 -38 56 -67 69 -87 6 -9 26 -40 46 -69 147 -218 228 -452 264 -762 9 -77
-15 -6660 -24 -6667 -4 -3 -38 -52 -76 -109 -114 -174 -243 -358 -353 -506
-118 -157 -142 -202 -149 -285 -11 -113 55 -229 160 -283 77 -40 187 -44 257
-10 50 25 103 70 138 118 l21 30 0 -535 c0 -580 -13 -4658 -28 -8915 -6 -1468
-13 -3734 -16 -5035 -5 -2370 -7 -2508 -26 -2675 -15 -129 -70 -373 -100 -440
-5 -11 -16 -42 -25 -70 -42 -130 -173 -372 -286 -530 -146 -202 -393 -436
-589 -556 -30 -19 -64 -40 -75 -46 -10 -7 -77 -42 -149 -78 -203 -103 -412
-168 -680 -212 -126 -20 -349 -21 -1655 -3 -1346 18 -2489 31 -2879 33 l-384
2 -23 -105 c-21 -98 -63 -265 -132 -525 -16 -60 -32 -122 -36 -136 l-6 -27
163 -6 c153 -6 495 -12 1962 -36 2020 -33 2520 -41 2985 -50 283 -6 778 -14
1100 -20 1249 -21 1230 -20 1251 -41 25 -25 24 -74 -2 -100 -21 -21 -26 -21
-268 -15 -281 7 -1084 21 -2086 36 -379 6 -1050 17 -1490 25 -2536 46 -3649
63 -3657 56 -3 -3 -16 -44 -28 -91 -12 -46 -25 -91 -30 -101 -5 -9 -18 -52
-30 -95 -21 -81 -91 -303 -142 -454 -16 -47 -37 -114 -48 -150 -10 -36 -28
-90 -40 -120 -12 -30 -25 -68 -30 -85 -9 -35 -56 -175 -70 -208 -5 -12 -32
-85 -59 -162 -27 -77 -77 -212 -111 -300 -34 -88 -73 -189 -86 -225 -13 -36
-28 -74 -34 -85 -13 -27 -70 -166 -77 -186 -4 -15 84 -17 1074 -24 1350 -10
5617 1 5888 15 280 14 433 37 680 105 325 89 653 247 927 446 254 185 540 481
694 719 16 25 32 47 35 50 33 28 229 413 279 550 106 288 160 538 180 830 5
85 17 427 25 760 8 333 19 776 25 985 46 1754 89 4196 110 6265 42 4268 1
8501 -110 11370 -6 146 -19 499 -30 785 -11 286 -24 601 -30 700 -5 99 -14
275 -20 390 -34 687 -70 1313 -105 1815 -14 195 -27 396 -30 445 -3 50 -10
135 -15 190 -19 195 -32 396 -27 402 3 3 21 -6 39 -20 39 -29 119 -57 162 -57
43 0 132 25 164 46 59 38 106 98 123 155 47 161 178 942 179 1067 0 68 -29
139 -78 191 -65 68 -128 96 -217 96 -83 0 -140 -23 -202 -82 -68 -63 -83 -104
-109 -300 -13 -97 -34 -238 -48 -312 -13 -75 -29 -169 -36 -209 -7 -41 -15
-70 -19 -65 -5 4 -18 123 -30 263 -12 140 -28 311 -36 380 -8 69 -19 177 -25
240 -10 109 -18 184 -55 505 -27 230 -74 610 -96 765 -11 80 -29 210 -39 290
-48 359 -83 546 -135 724 -38 131 -102 313 -123 352 -6 10 -33 66 -60 124 -55
119 -136 262 -207 365 -47 69 -163 225 -174 235 -3 3 -34 37 -69 77 -362 415
-868 737 -1396 889 -296 85 -496 112 -926 124 -344 10 -509 17 -617 26 l-61 5
-39 87 c-46 106 -141 292 -215 427 -30 55 -70 126 -88 159 -38 68 -269 439
-279 446 -3 3 -20 25 -36 50 -17 25 -63 90 -103 145 -40 55 -81 111 -90 123
-25 34 -185 236 -192 242 -3 3 -16 18 -28 33 -12 16 -54 65 -94 109 -40 44
-78 87 -84 96 -9 13 -20 14 -70 4 -32 -6 -144 -27 -249 -47 -104 -19 -221 -42
-260 -51 -38 -8 -104 -21 -145 -29 -229 -42 -534 -100 -920 -175 -140 -27
-319 -61 -397 -76 l-142 -27 -99 -106 c-122 -131 -137 -147 -226 -245 -39 -43
-86 -95 -105 -115 -18 -20 -79 -85 -135 -145 -55 -61 -130 -141 -166 -179 -36
-38 -69 -75 -75 -81 -13 -14 -218 -239 -225 -246 -3 -3 -36 -39 -75 -80 -38
-42 -96 -103 -128 -137 l-58 -62 -742 19 c-408 11 -803 20 -878 21 l-137 1
-30 62 c-16 33 -64 138 -107 231 -42 94 -95 208 -117 255 -22 47 -48 103 -58
125 l-18 41 101 109 c55 61 143 157 196 214 53 57 101 109 106 115 15 18 130
142 204 221 36 39 113 122 171 185 57 63 135 147 171 185 37 39 85 91 107 117
22 26 51 58 64 71 19 20 86 92 238 257 305 332 300 327 351 335 24 3 123 22
219 41 324 63 534 103 700 134 91 17 194 37 230 45 36 8 101 21 145 29 92 17
369 70 628 120 98 19 181 37 184 40 4 3 -6 19 -21 35 -31 33 -34 14 37 276 66
243 152 566 197 735 21 80 54 206 74 280 79 289 106 396 106 426 0 53 -39 93
-190 195 -80 54 -149 101 -155 106 -5 5 -104 71 -220 149 -468 313 -580 388
-585 395 -3 4 -33 25 -67 46 -34 21 -177 116 -317 211 -219 147 -262 172 -294
172 -21 0 -49 -8 -62 -17 -54 -36 -616 -459 -640 -480 -14 -13 -28 -23 -32
-23 -3 0 -13 -6 -20 -13 -7 -7 -165 -126 -350 -266 l-337 -253 -73 27 c-40 14
-89 33 -108 40 -59 23 -393 126 -505 156 -480 127 -949 208 -1395 239 -250 18
-280 21 -280 32 0 5 -32 65 -71 131 -162 275 -253 431 -371 637 -30 52 -87
149 -125 215 -39 66 -110 190 -158 275 -135 237 -142 246 -210 262 -11 3 -31
3 -45 2z m-8565 -7904 c253 -6 678 -14 945 -20 267 -5 588 -12 714 -16 l228
-7 -5 -36 c-15 -94 -40 -354 -50 -521 l-12 -184 -55 -31 c-30 -17 -116 -67
-190 -110 -74 -43 -155 -89 -180 -103 -25 -13 -61 -34 -80 -46 -19 -13 -78
-47 -130 -76 -52 -29 -149 -85 -215 -123 -236 -137 -302 -175 -435 -252 -243
-140 -250 -146 -250 -229 0 -24 20 -146 45 -271 25 -125 44 -232 43 -237 -2
-5 -12 8 -23 29 -11 21 -38 70 -61 108 -23 39 -49 86 -59 105 -10 19 -21 37
-24 40 -4 3 -23 34 -43 70 -49 91 -70 128 -150 265 -39 66 -89 152 -111 190
-22 39 -47 81 -56 95 -8 14 -26 45 -40 70 -13 25 -52 92 -86 150 -35 58 -104
177 -155 265 -120 208 -118 204 -181 315 -29 52 -56 97 -59 100 -3 3 -22 34
-42 70 -52 96 -73 133 -149 261 -37 63 -71 123 -75 133 -6 17 6 18 237 12 134
-4 451 -11 704 -16z m-34628 -16150 c43 -27 83 -54 90 -60 7 -5 15 -10 18 -10
3 0 57 -32 121 -71 64 -39 140 -84 168 -99 75 -40 279 -150 296 -160 37 -22
403 -201 480 -235 47 -21 122 -55 168 -76 46 -22 87 -39 92 -39 5 0 38 -17 72
-38 186 -114 452 -245 785 -386 150 -64 488 -178 698 -236 277 -76 669 -160
860 -185 73 -9 85 -14 85 -36 0 -22 25 -119 80 -304 21 -71 54 -186 74 -255
20 -69 45 -154 56 -190 55 -188 121 -438 216 -820 58 -234 109 -441 114 -460
4 -19 25 -111 45 -205 20 -93 47 -219 60 -280 29 -130 94 -459 106 -530 4 -27
15 -86 23 -130 99 -527 172 -996 245 -1580 42 -334 90 -795 111 -1075 6 -80
15 -194 21 -255 5 -60 14 -202 19 -315 6 -113 15 -295 20 -405 5 -110 10 -358
10 -552 0 -209 4 -362 10 -378 7 -19 4 -66 -14 -178 -35 -214 -140 -1079 -170
-1402 -15 -148 -30 -313 -36 -365 -5 -52 -17 -203 -25 -335 -9 -132 -20 -255
-23 -274 l-7 -33 -405 1 c-223 1 -520 3 -660 6 -140 3 -601 10 -1025 16 -880
11 -884 11 -1205 90 -254 63 -601 243 -820 427 -132 110 -286 267 -361 369
-24 32 -47 60 -50 63 -20 16 -136 209 -188 314 -78 157 -134 307 -177 478 -69
275 -64 -153 -64 5292 0 2712 0 4934 0 4939 0 12 6 9 87 -43z m1243 -12500
c261 -5 898 -17 1415 -25 517 -8 1199 -20 1515 -25 316 -6 594 -10 618 -10
l43 0 -3 -67 -3 -68 -330 2 c-181 1 -580 7 -885 13 -532 10 -1510 26 -3015 51
-443 7 -707 15 -720 22 -11 5 -23 15 -27 21 -14 20 -8 69 10 89 17 19 28 20
462 13 245 -3 659 -11 920 -16z m27043 -949 c222 -78 381 -248 433 -461 80
-331 -111 -665 -441 -772 -100 -32 -270 -32 -372 1 -329 105 -519 442 -438
776 12 48 66 175 75 175 4 0 13 13 20 30 19 47 147 161 227 203 113 59 197 78
328 73 76 -3 128 -10 168 -25z m2247 -10878 c26 -23 27 -83 2 -106 -10 -9 -32
-19 -48 -21 -16 -3 -228 -8 -472 -11 l-443 -5 -24 24 c-30 30 -32 65 -6 97 19
24 20 24 298 29 614 12 671 12 693 -7z m-2236 -38 c39 -36 33 -96 -12 -114
-16 -6 -192 -12 -422 -16 -217 -3 -692 -10 -1055 -15 -363 -5 -968 -14 -1345
-20 -377 -6 -1155 -17 -1730 -25 -575 -8 -1346 -19 -1715 -25 -368 -5 -987
-14 -1375 -20 -1904 -28 -1888 -28 -1975 -50 -223 -59 -376 -184 -484 -394
-44 -85 -69 -186 -107 -431 -14 -93 -36 -240 -50 -325 -13 -85 -27 -171 -30
-190 -15 -99 -46 -131 -110 -110 -47 16 -50 46 -20 230 14 85 37 229 51 320
53 343 74 437 118 539 115 267 357 458 652 516 52 11 257 17 810 25 407 5
1037 15 1400 20 363 5 971 14 1350 20 380 6 996 15 1370 20 374 6 1141 17
1705 25 2569 37 2681 38 2861 43 79 2 88 0 113 -23z"/>
<path d="M38985 27231 c-134 -38 -239 -122 -308 -245 -90 -162 -71 -420 41
-546 44 -50 92 -94 122 -113 19 -11 37 -24 40 -28 3 -4 34 -17 70 -30 93 -33
237 -33 338 0 39 13 72 26 72 30 0 3 13 12 28 19 41 18 134 111 167 168 84
144 88 351 10 499 -31 57 -39 67 -97 125 -119 119 -318 169 -483 121z"/>
<path d="M47206 63758 c-62 -23 -110 -59 -223 -169 -136 -132 -342 -346 -458
-474 -44 -49 -95 -105 -113 -124 -18 -20 -47 -58 -65 -86 -29 -45 -32 -58 -35
-141 -4 -108 13 -153 84 -221 120 -115 309 -108 427 16 29 31 93 101 142 156
132 146 190 207 388 403 183 182 209 217 226 307 10 53 -3 134 -29 186 -46 89
-160 160 -257 158 -32 0 -71 -5 -87 -11z"/>
<path d="M17638 63542 c-21 -2 -38 -7 -38 -13 0 -5 -7 -9 -15 -9 -8 0 -20 -9
-27 -19 -6 -10 -16 -17 -22 -15 -14 5 -80 -92 -72 -104 3 -6 -1 -15 -9 -22
-11 -9 -15 -34 -15 -96 0 -45 4 -85 9 -88 5 -3 8 -36 6 -73 -1 -38 2 -104 6
-148 11 -98 25 -375 39 -755 6 -157 16 -359 21 -450 6 -91 10 -183 10 -205 0
-22 6 -98 15 -168 9 -71 13 -139 10 -150 -6 -22 14 -401 34 -658 6 -74 8 -142
5 -150 -5 -13 5 -228 20 -429 3 -36 7 -119 9 -185 5 -154 24 -407 32 -429 4
-11 9 -14 13 -7 4 6 7 -4 8 -22 1 -24 12 -43 46 -77 25 -25 61 -53 79 -64 43
-24 172 -34 488 -38 220 -2 249 -1 285 16 36 16 38 19 20 27 -16 6 -12 8 15 6
32 -2 35 0 33 23 -4 67 33 136 67 125 16 -5 18 4 24 77 10 126 25 477 27 618
2 89 4 112 9 80 6 -42 7 -40 8 26 1 39 5 113 8 165 4 69 3 90 -5 79 -8 -11 -9
-6 -4 20 3 19 10 37 15 38 4 2 8 43 8 90 0 126 28 737 41 904 6 79 13 195 15
258 4 165 11 271 18 300 3 14 10 165 16 335 6 171 15 378 20 460 5 83 10 217
11 298 2 134 0 153 -22 207 -13 33 -29 60 -36 60 -7 0 -13 4 -13 8 0 14 -82
68 -115 76 -16 4 -126 14 -245 22 -118 8 -273 19 -345 25 -71 6 -164 12 -205
15 -41 2 -118 8 -170 12 -52 4 -112 6 -132 4z m229 -38 c-3 -3 -12 -4 -19 -1
-8 3 -5 6 6 6 11 1 17 -2 13 -5z m156 -4 c-17 -4 -49 -4 -70 0 -32 6 -26 8 32
8 53 0 62 -2 38 -8z m57 -10 c0 -5 -10 -10 -22 -10 -19 0 -20 2 -8 10 19 13
30 13 30 0z m73 -7 c-7 -2 -19 -2 -25 0 -7 3 -2 5 12 5 14 0 19 -2 13 -5z
m-148 -13 c-3 -5 -12 -10 -18 -10 -7 0 -6 4 3 10 19 12 23 12 15 0z m282 3
c-20 -2 -52 -2 -70 0 -17 2 0 4 38 4 39 0 53 -2 32 -4z m146 0 c-7 -2 -19 -2
-25 0 -7 3 -2 5 12 5 14 0 19 -2 13 -5z m-860 -10 c-7 -2 -19 -2 -25 0 -7 3
-2 5 12 5 14 0 19 -2 13 -5z m500 0 c-7 -2 -21 -2 -30 0 -10 3 -4 5 12 5 17 0
24 -2 18 -5z m434 1 c-3 -3 -12 -4 -19 -1 -8 3 -5 6 6 6 11 1 17 -2 13 -5z
m248 -24 c3 -5 -1 -10 -9 -10 -9 0 -16 5 -16 10 0 6 4 10 9 10 6 0 13 -4 16
-10z m-1239 -35 c-4 -14 -14 -25 -23 -25 -15 0 -15 1 0 18 10 10 17 25 17 32
0 7 3 11 6 7 4 -3 4 -18 0 -32z m1281 19 c-3 -3 -12 -4 -19 -1 -8 3 -5 6 6 6
11 1 17 -2 13 -5z m-24 -31 c-7 -2 -19 -2 -25 0 -7 3 -2 5 12 5 14 0 19 -2 13
-5z m42 -3 c3 -5 1 -10 -4 -10 -6 0 -11 5 -11 10 0 6 2 10 4 10 3 0 8 -4 11
-10z m-1315 -45 c0 -14 -7 -28 -15 -32 -23 -8 -33 7 -12 18 9 6 17 17 17 24 0
8 2 15 5 15 3 0 5 -11 5 -25z m1387 -62 c-3 -10 -5 -4 -5 12 0 17 2 24 5 18 2
-7 2 -21 0 -30z m13 -98 l-7 -50 -2 60 c0 34 3 55 8 50 4 -6 5 -32 1 -60z
m-1420 31 c0 -11 -19 -15 -25 -6 -3 5 1 10 9 10 9 0 16 -2 16 -4z m29 -86 c0
-10 -2 -11 -6 -2 -11 28 -23 9 -17 -28 4 -27 3 -40 -5 -40 -15 0 -14 65 1 90
13 20 28 9 27 -20z m-2 -132 c-2 -13 -4 -3 -4 22 0 25 2 35 4 23 2 -13 2 -33
0 -45z m-4 -188 l6 -75 -14 90 c-7 50 -13 119 -13 155 l1 65 7 -80 c4 -44 10
-114 13 -155z m1394 -12 c-2 -35 -3 -7 -3 62 0 69 1 97 3 63 2 -35 2 -91 0
-125z m-1387 -178 c0 -22 -4 -40 -10 -40 -5 0 -10 18 -10 40 0 22 5 40 10 40
6 0 10 -18 10 -40z m1377 -22 c-2 -13 -4 -3 -4 22 0 25 2 35 4 23 2 -13 2 -33
0 -45z m-1380 -120 c-3 -8 -6 -5 -6 6 -1 11 2 17 5 13 3 -3 4 -12 1 -19z m10
-280 c-2 -13 -4 -3 -4 22 0 25 2 35 4 23 2 -13 2 -33 0 -45z m1293 -265 c-11
-17 -11 -17 -6 0 3 10 7 35 8 55 l1 37 4 -37 c2 -21 -1 -46 -7 -55z m37 -95
c-2 -35 -3 -9 -3 57 0 66 1 94 3 63 2 -32 2 -86 0 -120z m-20 -149 c1 -111 -1
-199 -4 -195 -12 12 -12 396 1 396 0 0 2 -90 3 -201z m-1240 -131 c-2 -13 -4
-3 -4 22 0 25 2 35 4 23 2 -13 2 -33 0 -45z m-30 -140 c-2 -24 -4 -5 -4 42 0
47 2 66 4 43 2 -24 2 -62 0 -85z m30 -20 c-2 -13 -4 -3 -4 22 0 25 2 35 4 23
2 -13 2 -33 0 -45z m1230 0 c-2 -13 -4 -3 -4 22 0 25 2 35 4 23 2 -13 2 -33 0
-45z m-1231 -260 c1 -153 0 -157 -7 -63 -6 79 -2 225 5 225 1 0 2 -73 2 -162z
m1225 32 c-6 -81 -9 -97 -10 -54 -1 64 10 196 16 179 1 -6 -1 -62 -6 -125z
m-1212 -449 c1 -127 -6 -94 -11 54 -3 79 -2 110 3 80 4 -27 8 -88 8 -134z
m1148 -313 c-3 -8 -6 -5 -6 6 -1 11 2 17 5 13 3 -3 4 -12 1 -19z m-8 -112 c1
-57 -5 -40 -12 29 -3 37 -2 51 3 35 4 -14 8 -43 9 -64z m28 -18 c-2 -13 -4 -3
-4 22 0 25 2 35 4 23 2 -13 2 -33 0 -45z m-23 -175 c-5 -43 -8 -116 -8 -163 1
-73 1 -78 -6 -35 -10 64 0 275 13 275 6 0 6 -28 1 -77z m-1077 -65 c-2 -13 -4
-3 -4 22 0 25 2 35 4 23 2 -13 2 -33 0 -45z m-30 -60 c-2 -13 -4 -5 -4 17 -1
22 1 32 4 23 2 -10 2 -28 0 -40z m30 -131 c8 -303 8 -435 0 -409 -9 29 -17
545 -8 536 3 -3 7 -60 8 -127z m-30 31 c-2 -13 -4 -3 -4 22 0 25 2 35 4 23 2
-13 2 -33 0 -45z m1102 -130 c0 -18 -4 -55 -9 -83 -6 -44 -7 -41 -6 32 0 46 4
83 9 83 4 0 7 -15 6 -32z m-12 -270 c-2 -13 -4 -3 -4 22 0 25 2 35 4 23 2 -13
2 -33 0 -45z m-972 -189 c11 -17 -1 -21 -15 -4 -8 9 -8 15 -2 15 6 0 14 -5 17
-11z m383 -83 c2 -3 -65 -4 -151 -3 -86 1 -158 5 -161 8 -3 3 65 4 151 2 86
-1 158 -5 161 -7z m55 -3 c-7 -2 -19 -2 -25 0 -7 3 -2 5 12 5 14 0 19 -2 13
-5z m365 0 c-10 -2 -26 -2 -35 0 -10 3 -2 5 17 5 19 0 27 -2 18 -5z m-48 -17
c8 -2 -13 -4 -48 -5 -35 0 -61 3 -58 7 4 7 70 6 106 -2z m-382 -3 c-10 -2 -26
-2 -35 0 -10 3 -2 5 17 5 19 0 27 -2 18 -5z m59 1 c-3 -3 -12 -4 -19 -1 -8 3
-5 6 6 6 11 1 17 -2 13 -5z"/>
<path d="M17663 59660 c0 -25 2 -35 4 -22 2 12 2 32 0 45 -2 12 -4 2 -4 -23z"/>
<path d="M45538 61760 c-80 -24 -140 -81 -220 -207 -29 -46 -65 -102 -80 -126
-15 -23 -37 -61 -49 -84 -12 -24 -26 -43 -31 -43 -4 0 -8 -4 -8 -8 0 -5 -36
-68 -79 -140 -44 -72 -82 -141 -86 -152 -3 -11 -11 -20 -16 -20 -5 0 -9 -5 -9
-10 0 -6 -29 -61 -64 -123 -78 -137 -95 -201 -76 -284 21 -96 74 -162 166
-208 70 -35 177 -35 249 -1 82 39 111 76 239 311 30 54 164 278 208 348 15 23
34 56 43 74 9 18 23 37 31 44 8 6 14 16 14 22 0 5 11 25 25 43 14 18 25 37 25
42 0 6 3 12 8 14 14 6 60 86 76 132 63 185 -89 388 -287 385 -29 0 -64 -4 -79
-9z"/>
<path d="M66510 60341 c-79 -26 -140 -79 -180 -158 -20 -39 -25 -63 -25 -124
l0 -77 130 -258 c167 -334 203 -372 360 -382 132 -8 228 50 286 171 38 80 39
153 5 231 -33 74 -130 270 -137 276 -3 3 -25 43 -49 90 -63 125 -91 161 -155
199 -49 30 -67 35 -133 37 -42 2 -88 0 -102 -5z"/>
<path d="M18677 59343 c-4 -3 -7 -15 -7 -25 0 -10 -5 -27 -12 -38 -19 -29 1
-38 22 -10 10 13 17 27 14 31 -2 4 3 12 11 19 8 7 15 16 15 21 0 10 -34 12
-43 2z"/>
<path d="M67316 58440 c-128 -54 -195 -139 -203 -259 -4 -57 0 -82 34 -186 22
-66 50 -156 63 -200 12 -44 31 -107 41 -140 24 -81 63 -229 104 -395 32 -129
49 -181 67 -205 36 -47 76 -80 129 -106 58 -29 69 -31 131 -26 166 14 282 137
281 296 -1 72 -83 401 -178 716 -25 83 -52 173 -60 200 -45 156 -74 209 -143
262 -76 58 -187 76 -266 43z"/>
<path d="M18075 58395 c-5 -2 -37 -7 -70 -11 -53 -7 -56 -8 -30 -15 17 -3 50
-7 74 -8 59 -1 42 -16 -19 -16 -26 0 -43 3 -37 7 20 12 -67 13 -113 1 -110
-29 -283 -142 -249 -164 10 -7 8 -8 -11 -7 -22 3 -25 -1 -23 -27 2 -23 0 -26
-7 -15 -9 13 -13 11 -29 -10 -11 -13 -18 -27 -15 -31 2 -3 -6 -15 -17 -25 -14
-13 -19 -26 -15 -44 2 -14 -4 -43 -14 -65 -12 -26 -19 -33 -19 -21 -1 29 -10
15 -27 -45 -19 -69 -29 -325 -16 -399 17 -90 31 -136 57 -194 14 -30 25 -62
25 -70 0 -9 4 -16 9 -16 6 0 25 -21 43 -46 30 -42 35 -45 65 -39 38 7 49 -7
35 -45 -8 -23 -3 -28 62 -69 74 -46 205 -101 243 -101 12 0 23 -5 25 -11 5
-15 335 -14 354 2 8 7 38 13 67 14 69 2 161 36 186 68 7 10 19 16 25 14 7 -3
23 4 37 14 13 10 27 19 31 19 11 0 78 64 78 74 0 5 -10 0 -23 -12 -32 -30 -46
-28 -17 3 13 14 30 23 38 20 14 -5 42 16 42 32 0 5 12 22 28 39 31 35 46 69
75 179 12 44 25 83 30 86 11 8 10 334 -1 356 -5 10 -13 40 -17 67 -3 27 -13
65 -22 85 -29 69 -58 126 -70 139 -7 7 -13 17 -13 21 0 3 -27 33 -59 66 -62
63 -116 99 -132 89 -12 -7 -79 15 -79 26 0 5 14 2 30 -7 17 -8 36 -13 43 -10
20 7 -72 45 -163 68 -118 29 -351 49 -395 34z m50 -15 c-3 -5 -15 -10 -26 -10
-10 0 -19 5 -19 10 0 6 12 10 26 10 14 0 23 -4 19 -10z m98 -17 c-13 -2 -33
-2 -45 0 -13 2 -3 4 22 4 25 0 35 -2 23 -4z m177 -1 c0 -9 -108 -8 -117 2 -3
3 21 6 55 6 34 0 62 -3 62 -8z m77 -18 c-3 -3 -12 -4 -19 -1 -8 3 -5 6 6 6 11
1 17 -2 13 -5z m-684 -61 c-7 -2 -19 -2 -25 0 -7 3 -2 5 12 5 14 0 19 -2 13
-5z m1021 -168 c3 -8 1 -15 -4 -15 -6 0 -10 7 -10 15 0 8 2 15 4 15 2 0 6 -7
10 -15z m-1233 -44 c-14 -32 -36 -46 -54 -34 -7 4 -2 9 13 13 20 5 26 13 28
39 3 24 7 30 14 23 8 -8 7 -20 -1 -41z m1259 -3 c0 -19 -2 -20 -10 -8 -13 19
-13 30 0 30 6 0 10 -10 10 -22z m72 -147 c-4 -11 -7 -10 -13 5 -12 29 -10 36
5 22 7 -7 11 -19 8 -27z m-12 -46 c0 -7 7 -15 15 -19 9 -3 14 -17 14 -33 l-2
-28 -4 28 c-3 19 -9 27 -18 23 -8 -3 -14 5 -17 24 -2 16 -1 27 4 24 4 -3 8
-11 8 -19z m-1423 -7 c-3 -8 -6 -5 -6 6 -1 11 2 17 5 13 3 -3 4 -12 1 -19z
m1420 -80 c-3 -7 -5 -2 -5 12 0 14 2 19 5 13 2 -7 2 -19 0 -25z m-1420 -350
c-3 -8 -6 -5 -6 6 -1 11 2 17 5 13 3 -3 4 -12 1 -19z m30 0 c-3 -8 -6 -5 -6 6
-1 11 2 17 5 13 3 -3 4 -12 1 -19z m1403 7 c-7 -9 -10 -25 -6 -41 5 -17 3 -23
-4 -19 -19 11 -9 75 12 75 6 0 5 -6 -2 -15z m17 -27 c-3 -8 -6 -5 -6 6 -1 11
2 17 5 13 3 -3 4 -12 1 -19z m-1418 -93 c0 -13 -5 -9 -14 14 -8 18 -15 43 -14
55 0 15 4 12 14 -14 7 -19 14 -44 14 -55z m1378 -17 c-2 -13 -4 -5 -4 17 -1
22 1 32 4 23 2 -10 2 -28 0 -40z m-1297 -92 c0 -11 -19 -15 -25 -6 -3 5 1 10
9 10 9 0 16 -2 16 -4z m1250 0 c0 -11 -19 -15 -25 -6 -3 5 1 10 9 10 9 0 16
-2 16 -4z m-102 -90 c-7 -8 -15 -12 -17 -11 -5 6 10 25 20 25 5 0 4 -6 -3 -14z
m-975 -83 c-3 -8 3 -13 16 -13 12 0 21 -4 21 -10 0 -16 -14 -12 -50 15 -33 24
-33 25 -8 23 16 -1 24 -7 21 -15z m74 2 c9 -25 -2 -27 -22 -5 -17 18 -17 20
-1 20 9 0 19 -7 23 -15z m786 8 c-7 -2 -19 -2 -25 0 -7 3 -2 5 12 5 14 0 19
-2 13 -5z m70 0 c-7 -2 -19 -2 -25 0 -7 3 -2 5 12 5 14 0 19 -2 13 -5z m-863
-64 c0 -5 -4 -9 -10 -9 -5 0 -10 7 -10 16 0 8 5 12 10 9 6 -3 10 -10 10 -16z
m737 -4 c-4 -9 -17 -14 -34 -14 l-28 2 28 4 c16 3 27 11 27 20 0 9 3 14 6 10
4 -3 4 -13 1 -22z m-700 -11 c-3 -3 -12 -4 -19 -1 -8 3 -5 6 6 6 11 1 17 -2
13 -5z m103 -10 c32 -13 32 -14 5 -7 -16 3 -41 6 -54 6 -18 -1 -20 1 -10 8 17
11 16 11 59 -7z m520 5 c13 -9 12 -10 -3 -5 -10 3 -34 -1 -53 -9 -38 -15 -47
-6 -11 11 29 15 49 16 67 3z m-530 -29 c18 -12 2 -12 -25 0 -13 6 -15 9 -5 9
8 0 22 -4 30 -9z m510 0 c-20 -13 -43 -13 -35 0 3 6 16 10 28 10 18 0 19 -2 7
-10z"/>
<path d="M17490 58004 c0 -8 5 -12 10 -9 6 3 10 10 10 16 0 5 -4 9 -10 9 -5 0
-10 -7 -10 -16z"/>
<path d="M17636 57114 c-8 -21 -3 -26 18 -18 20 8 21 34 2 34 -8 0 -17 -7 -20
-16z"/>
<path d="M67860 55941 c-89 -28 -161 -90 -198 -171 -27 -60 -27 -90 -2 -460 5
-80 14 -269 20 -420 l10 -275 35 -70 c57 -115 160 -173 282 -161 111 11 194
68 244 166 40 78 38 291 -7 920 -16 227 -25 274 -66 341 -62 101 -211 162
-318 130z"/>
<path d="M21315 52504 c-96 -15 -199 -40 -267 -65 -77 -28 -159 -66 -168 -78
-3 -3 -23 -18 -46 -33 -153 -99 -269 -299 -304 -523 -26 -169 -31 -184 -78
-236 -65 -73 -124 -99 -236 -106 -108 -7 -142 -22 -209 -91 -26 -28 -62 -57
-80 -65 -26 -13 -35 -25 -45 -62 -17 -63 -80 -124 -157 -152 -33 -12 -130 -32
-215 -43 -343 -47 -509 -134 -634 -330 -141 -220 -172 -408 -142 -851 9 -130
16 -275 16 -322 0 -146 -27 -310 -71 -442 -48 -141 -76 -199 -157 -321 l-60
-91 35 -42 c40 -46 81 -74 141 -95 l41 -15 57 59 c63 66 181 131 272 149 70
14 241 14 300 -1 68 -16 174 -88 222 -150 23 -29 48 -61 55 -70 55 -67 156
-283 218 -468 43 -125 116 -402 127 -480 4 -31 24 -92 43 -136 20 -43 54 -126
77 -184 23 -58 50 -123 60 -145 10 -22 39 -94 64 -160 26 -66 51 -129 55 -140
43 -100 69 -165 103 -255 188 -493 201 -520 288 -575 53 -33 93 -43 240 -61
300 -35 866 -30 1340 12 448 39 467 42 528 73 92 47 143 116 161 217 9 49 6
115 -14 354 -14 161 -32 339 -40 394 -47 327 -58 399 -95 601 -5 28 -16 88
-25 135 -49 271 -69 325 -148 396 -79 70 -172 89 -296 58 -153 -39 -421 -195
-651 -381 -8 -7 -51 -40 -94 -75 -44 -35 -107 -85 -140 -111 -79 -63 -184
-116 -252 -127 -150 -25 -326 67 -458 239 -58 75 -82 125 -111 229 -14 48 -31
110 -40 137 -8 28 -44 154 -80 280 -35 127 -71 253 -80 280 -8 28 -44 154 -80
280 -35 127 -71 253 -80 280 -134 444 -149 527 -110 615 15 37 92 149 115 170
3 3 30 32 60 65 73 79 203 193 265 232 183 115 338 155 521 133 139 -17 406
-15 549 5 122 16 335 60 364 75 9 4 50 20 91 35 282 104 460 273 515 490 37
145 4 409 -80 645 -154 431 -473 749 -830 826 -69 16 -292 27 -350 18z"/>
<path d="M39666 50054 c-54 -7 -113 -18 -130 -23 -17 -5 -51 -13 -76 -16 -84
-13 -244 -71 -365 -133 -208 -107 -417 -294 -568 -510 -20 -28 -37 -56 -37
-61 0 -5 -7 -17 -16 -25 -16 -17 -144 -268 -144 -283 0 -5 -12 -38 -26 -73
-47 -116 -110 -335 -143 -500 -11 -52 -26 -127 -35 -165 -16 -75 -37 -251 -62
-515 -21 -227 -30 -840 -15 -1083 18 -298 61 -645 102 -822 34 -150 71 -299
77 -315 3 -8 15 -46 28 -85 38 -117 49 -145 56 -145 5 0 8 -7 8 -15 0 -27 124
-283 171 -353 16 -24 29 -46 29 -49 0 -9 71 -105 129 -173 132 -155 285 -284
416 -350 28 -14 52 -28 55 -31 11 -12 111 -54 215 -90 293 -101 708 -116 1080
-40 78 16 166 40 205 55 144 58 175 72 178 78 2 5 8 8 14 8 8 0 81 39 153 83
110 67 369 317 394 380 4 10 26 39 49 62 6 8 12 16 12 19 0 3 17 34 38 68 49
79 127 242 175 363 13 34 79 243 107 340 5 17 12 51 16 78 3 26 11 47 16 47 5
0 7 4 4 8 -3 5 4 51 14 103 35 167 72 500 91 829 13 224 7 785 -11 960 -27
273 -52 480 -65 545 -51 253 -84 380 -140 555 -15 47 -28 95 -29 106 -1 12 -6
20 -11 18 -6 -3 -19 19 -29 48 -35 101 -129 281 -208 398 -107 158 -286 347
-393 416 -16 10 -36 24 -43 31 -29 28 -136 85 -282 151 -62 28 -157 58 -210
66 -25 4 -58 12 -75 17 -122 37 -521 50 -719 23z m405 -984 c189 -35 330 -151
432 -355 44 -88 67 -141 67 -152 0 -4 14 -51 30 -103 36 -110 83 -397 107
-650 21 -214 25 -1139 5 -1330 -31 -303 -65 -554 -81 -600 -5 -14 -17 -56 -26
-95 -34 -139 -90 -277 -143 -352 -12 -17 -22 -34 -22 -37 0 -17 -79 -97 -151
-153 -36 -28 -85 -52 -149 -74 -89 -29 -101 -31 -200 -26 -59 3 -124 12 -149
22 -68 25 -129 54 -154 73 -43 33 -143 140 -157 168 -8 16 -19 35 -24 42 -5 7
-27 52 -48 100 -85 193 -150 539 -177 947 -25 373 -22 886 8 1300 8 110 13
155 41 372 11 79 86 401 99 418 4 5 20 42 36 80 68 165 170 284 301 350 120
60 233 78 355 55z"/>
<path d="M35670 49979 c0 -3 -8 -14 -18 -25 -10 -10 -27 -35 -38 -54 -10 -19
-21 -37 -24 -40 -12 -11 -145 -216 -148 -227 -2 -7 -8 -13 -13 -13 -5 0 -9 -4
-9 -9 0 -5 -58 -96 -129 -202 -234 -353 -271 -410 -271 -419 0 -5 -3 -10 -7
-12 -12 -5 -53 -66 -53 -78 0 -5 -3 -10 -7 -10 -5 0 -24 -27 -43 -60 -19 -33
-38 -60 -42 -60 -5 0 -8 -6 -8 -14 0 -8 -4 -16 -9 -18 -4 -1 -19 -22 -32 -45
-13 -23 -55 -88 -94 -144 -38 -57 -72 -108 -74 -113 -2 -6 -17 -27 -32 -47
-16 -20 -29 -40 -29 -44 0 -4 -22 -38 -50 -76 -27 -38 -50 -71 -50 -75 0 -3
-11 -20 -25 -38 -14 -18 -25 -36 -25 -40 0 -4 -5 -12 -10 -19 -6 -7 -80 -118
-165 -247 -167 -254 -165 -251 -217 -325 -19 -28 -37 -55 -39 -60 -4 -10 -73
-115 -305 -467 -57 -86 -104 -161 -104 -166 0 -6 -4 -12 -9 -14 -5 -1 -30 -37
-57 -78 -26 -41 -50 -77 -54 -80 -4 -3 -15 -21 -26 -40 -10 -19 -21 -37 -24
-40 -14 -14 -150 -222 -150 -230 0 -4 -4 -10 -8 -12 -4 -1 -27 -33 -50 -70
l-42 -68 0 -435 0 -436 453 6 c248 3 721 10 1050 16 329 5 673 9 763 9 l164 0
-2 -601 -3 -601 525 6 c289 4 553 9 588 12 l62 6 0 599 0 599 293 2 c160 1
311 3 335 3 l42 0 -2 480 -3 479 -333 -3 -332 -3 2 1821 c2 1209 0 1821 -7
1821 -98 4 -1105 3 -1105 -1z m-17 -1446 c-23 -194 -35 -581 -40 -1349 l-6
-851 -186 -6 c-229 -8 -1151 -9 -1151 -1 0 3 11 20 25 38 14 18 25 37 25 41 0
4 11 23 25 41 14 18 25 35 25 38 0 4 25 42 55 86 30 44 55 82 55 85 0 3 5 11
11 18 6 7 59 90 119 184 60 95 125 195 145 223 19 27 35 53 35 57 0 5 20 37
45 72 25 36 45 71 45 78 0 7 3 13 8 13 4 0 18 19 32 42 14 22 57 89 95 149 65
99 128 199 165 259 24 38 89 139 129 200 49 75 70 112 77 133 4 9 9 17 13 17
3 0 33 53 66 118 33 64 62 119 65 122 6 5 52 101 86 177 22 48 42 57 37 16z"/>
<path d="M44812 49968 c-7 -7 -12 -15 -12 -20 0 -6 -50 -89 -90 -148 -53 -78
-194 -298 -223 -348 -20 -34 -46 -72 -57 -84 -11 -12 -23 -31 -26 -42 -4 -11
-12 -26 -18 -32 -6 -7 -51 -76 -101 -154 -49 -78 -114 -178 -142 -222 -29 -43
-53 -83 -53 -89 0 -5 -3 -9 -8 -9 -4 0 -16 -17 -27 -37 -11 -21 -43 -73 -72
-115 -29 -42 -53 -79 -53 -81 0 -3 -20 -36 -45 -74 -25 -37 -45 -71 -45 -75 0
-8 -21 -36 -47 -63 -7 -8 -13 -17 -13 -20 0 -4 -42 -72 -92 -151 -51 -80 -97
-152 -103 -162 -5 -9 -13 -19 -16 -22 -3 -3 -17 -24 -30 -47 -13 -23 -36 -59
-50 -80 -14 -21 -55 -83 -90 -138 -35 -55 -92 -142 -126 -194 -35 -52 -63 -97
-63 -101 0 -3 -20 -35 -45 -70 -25 -35 -45 -68 -45 -72 0 -5 -5 -14 -10 -21
-17 -19 -198 -298 -204 -314 -3 -8 -10 -11 -16 -8 -5 3 -7 0 -5 -8 3 -7 -9
-33 -27 -58 -17 -24 -37 -53 -43 -64 -13 -23 -72 -116 -124 -195 -20 -30 -42
-64 -48 -75 -80 -130 -116 -187 -126 -198 -7 -7 -20 -26 -29 -44 -16 -28 -18
-70 -18 -459 l0 -427 233 6 c267 8 1468 22 1817 22 l235 0 2 -578 c2 -318 4
-581 7 -585 2 -4 96 -4 208 -1 111 4 304 7 428 8 124 1 281 4 350 7 l125 7 -3
577 -2 578 21 5 c12 3 153 6 312 7 160 0 292 2 294 3 1 2 3 212 3 468 l1 464
-316 -4 -315 -4 -2 1774 -3 1774 -520 3 c-397 2 -524 -1 -533 -10z m-19 -1570
c-21 -307 -23 -429 -29 -1224 l-6 -752 -471 -7 c-260 -3 -545 -5 -634 -3
l-162 3 49 73 c28 40 50 75 50 78 0 3 11 20 25 38 14 18 25 36 25 40 0 4 18
34 40 66 22 32 40 61 40 64 0 9 104 171 112 174 5 2 8 8 8 13 0 6 8 22 19 37
10 15 40 62 67 106 27 43 57 90 66 105 10 14 21 33 25 41 4 8 25 44 48 80 51
79 304 487 320 515 6 11 30 49 53 85 23 36 42 71 42 78 0 6 3 12 8 12 4 0 16
17 27 38 10 20 24 44 31 52 23 28 154 283 218 423 15 31 30 57 34 57 4 0 2
-87 -5 -192z"/>
<path d="M64449 46581 c-57 -28 -66 -36 -245 -210 -93 -90 -259 -243 -369
-339 -218 -191 -258 -236 -276 -306 -16 -63 -7 -162 20 -214 25 -50 86 -108
145 -139 50 -27 161 -31 226 -8 34 12 105 58 130 85 3 3 23 20 45 39 22 19 65
57 96 85 31 28 80 71 110 96 73 62 187 169 355 335 118 117 144 148 158 189
24 73 21 179 -6 235 -32 66 -104 134 -163 154 -66 23 -179 22 -226 -2z"/>
<path d="M62520 45004 c-45 -9 -84 -27 -175 -84 -49 -31 -110 -67 -135 -81
-25 -13 -47 -26 -50 -29 -8 -8 -111 -70 -116 -70 -2 0 -21 -11 -42 -23 -54
-35 -244 -139 -375 -207 -89 -46 -151 -103 -177 -164 -52 -116 -27 -248 61
-336 65 -64 157 -96 244 -86 46 6 235 90 243 108 2 5 9 8 14 8 6 0 68 32 137
71 167 93 151 84 278 161 62 37 117 68 122 68 5 0 11 4 13 8 2 4 41 30 88 57
156 91 214 172 214 300 0 122 -62 222 -167 270 -53 24 -132 37 -177 29z"/>
<path d="M53143 43910 c-76 -18 -162 -94 -195 -174 -10 -25 -17 -69 -17 -113
-1 -82 19 -140 69 -197 65 -73 118 -92 368 -131 50 -8 136 -22 190 -30 175
-28 475 -65 578 -71 136 -9 187 8 266 87 32 31 58 66 58 77 0 11 6 22 13 25 8
2 12 31 12 98 -1 110 -15 147 -81 213 -69 69 -105 81 -320 105 -215 23 -513
66 -738 105 -94 17 -151 19 -203 6z"/>
<path d="M60170 43869 c-41 -11 -84 -24 -95 -29 -51 -24 -509 -167 -734 -229
-62 -18 -130 -40 -150 -50 -95 -49 -156 -151 -155 -261 0 -155 115 -281 269
-297 47 -5 118 8 235 42 123 36 230 67 270 79 165 50 267 83 350 111 52 18
126 43 165 55 113 37 163 78 214 178 34 67 32 175 -5 248 -37 73 -106 135
-176 157 -68 21 -94 21 -188 -4z"/>
<path d="M57705 43290 c-100 -18 -530 -54 -810 -69 -208 -11 -257 -30 -331
-126 -48 -64 -68 -127 -61 -201 11 -113 78 -204 189 -254 54 -24 127 -25 429
-5 437 30 724 64 784 94 62 31 114 85 142 148 47 107 18 258 -64 335 -69 65
-177 96 -278 78z"/>
<path d="M45250 42520 c-151 -4 -323 -8 -382 -9 l-108 -1 0 -1549 c0 -1468 1
-1550 18 -1553 9 -2 40 0 67 4 28 3 97 7 155 7 58 1 169 4 248 8 l142 6 0 587
0 587 38 7 c69 11 257 7 274 -6 9 -7 48 -67 87 -133 38 -66 74 -124 79 -130 4
-5 11 -17 15 -25 3 -8 20 -37 37 -65 16 -27 46 -79 66 -115 20 -36 51 -87 69
-115 18 -27 72 -117 120 -200 49 -82 100 -168 114 -190 14 -22 39 -65 54 -95
16 -30 34 -60 41 -66 8 -7 110 -7 351 0 361 12 360 11 319 57 -8 8 -14 18 -14
21 0 10 -143 223 -152 226 -4 2 -8 9 -8 16 0 7 -20 41 -45 77 -25 35 -45 67
-45 71 0 5 -22 39 -49 77 -27 38 -58 84 -68 103 -10 19 -39 65 -65 104 -75
109 -131 197 -153 237 -11 20 -23 37 -27 37 -5 0 -8 4 -8 9 0 8 -60 104 -141
224 -41 61 -40 73 5 90 53 20 163 107 242 190 149 157 230 346 241 567 7 132
-8 263 -42 377 -27 87 -92 223 -107 223 -4 0 -8 5 -8 10 0 19 -93 110 -153
151 -75 52 -210 114 -289 133 -202 49 -413 60 -918 46z m535 -554 c103 -16
111 -19 183 -53 131 -63 193 -217 164 -404 -24 -153 -105 -243 -277 -307 -59
-22 -152 -34 -307 -39 l-158 -5 0 405 c0 315 3 406 13 410 27 11 297 6 382 -7z"/>
<path d="M42530 42504 c-156 -19 -208 -27 -277 -45 -173 -44 -328 -116 -449
-207 -83 -63 -224 -202 -224 -221 0 -6 -3 -11 -7 -11 -5 0 -19 -17 -33 -38
-14 -20 -28 -39 -32 -42 -20 -15 -123 -236 -157 -338 -79 -239 -95 -357 -95
-727 -1 -315 5 -377 55 -595 48 -209 154 -423 285 -578 162 -191 374 -310 669
-376 165 -36 557 -29 734 13 220 54 416 143 546 251 54 45 185 181 202 211 10
16 21 29 25 29 4 0 8 6 8 14 0 8 4 16 9 18 19 7 101 166 149 288 38 96 90 306
108 435 28 210 13 731 -25 860 -5 17 -19 73 -31 125 -12 52 -36 128 -52 170
-32 79 -86 191 -97 200 -3 3 -15 21 -25 40 -11 19 -22 37 -25 40 -4 3 -30 35
-59 72 -29 36 -78 88 -109 115 -31 26 -61 53 -67 58 -15 13 -94 65 -100 65 -3
0 -21 10 -39 23 -72 49 -246 108 -392 133 -86 15 -420 27 -495 18z m365 -579
c69 -23 172 -73 180 -86 4 -5 18 -15 32 -20 17 -6 23 -14 19 -25 -3 -9 -2 -12
5 -8 14 8 77 -61 113 -126 11 -19 23 -37 26 -40 4 -3 17 -34 30 -70 13 -36 29
-82 37 -103 14 -40 34 -142 52 -264 29 -196 0 -628 -52 -778 -44 -125 -82
-208 -109 -239 -10 -11 -18 -23 -18 -27 0 -8 -18 -29 -84 -99 -110 -115 -376
-196 -571 -172 -252 31 -401 135 -512 357 -41 80 -64 155 -99 315 -16 71 -19
128 -19 340 0 245 5 307 37 440 22 94 47 168 83 240 96 198 229 310 435 367
75 20 102 23 225 19 98 -3 155 -9 190 -21z"/>
<path d="M39250 42388 c-3 -3 -171 -8 -375 -11 l-370 -5 -3 -1582 -2 -1582
157 7 c87 3 233 7 325 8 104 1 168 6 168 12 1 6 1 273 0 595 0 322 3 590 8
597 5 9 54 13 166 14 87 0 159 -1 161 -3 6 -7 115 -191 115 -195 0 -2 5 -9 11
-16 6 -7 39 -58 73 -115 33 -56 123 -205 199 -330 76 -125 143 -236 150 -247
7 -11 21 -33 32 -50 11 -16 31 -50 45 -75 13 -25 33 -59 45 -76 11 -17 25 -40
31 -50 9 -16 24 -18 155 -15 79 1 232 6 339 11 107 5 203 10 212 10 12 0 15 5
11 18 -4 9 -9 19 -13 22 -3 3 -21 30 -40 60 -19 30 -38 60 -43 65 -4 6 -36 53
-70 105 -34 53 -91 140 -127 194 -36 54 -69 105 -75 113 -5 8 -51 79 -102 157
-51 77 -97 146 -103 153 -5 7 -10 14 -10 17 0 9 -144 221 -152 224 -4 2 -8 9
-8 16 0 7 -27 51 -60 100 -58 83 -65 106 -35 106 7 0 15 3 17 8 2 4 25 19 52
33 100 54 189 137 317 296 30 39 91 181 111 263 40 164 26 467 -29 605 -61
155 -131 252 -241 333 -124 92 -234 136 -436 178 -101 21 -160 26 -361 31
-132 3 -242 3 -245 1z m330 -573 c99 -18 141 -31 190 -58 60 -33 90 -58 90
-73 0 -8 4 -14 8 -14 15 0 52 -86 63 -146 13 -67 6 -175 -15 -234 -70 -203
-244 -287 -608 -295 l-158 -3 0 413 c0 385 1 414 18 418 43 12 332 6 412 -8z"/>
<path d="M36000 42317 c-3 -3 -99 -7 -215 -9 l-210 -4 -3 -1585 c-1 -871 0
-1588 2 -1594 3 -10 340 -3 564 11 l92 6 0 603 0 604 43 6 c23 3 100 5 171 3
l130 -3 28 -45 c15 -25 31 -52 34 -60 4 -8 17 -28 29 -45 12 -16 41 -63 65
-104 45 -78 83 -138 100 -158 5 -7 10 -14 10 -16 0 -3 24 -44 54 -93 30 -49
76 -125 102 -169 44 -74 131 -214 162 -260 7 -11 15 -28 18 -37 4 -10 9 -18
13 -18 4 0 22 -29 41 -65 19 -36 37 -65 41 -65 4 0 10 -12 13 -26 l7 -27 137
7 c75 3 234 8 352 12 118 3 223 8 232 10 13 4 5 22 -45 97 -34 51 -66 100 -72
109 -5 9 -41 63 -80 120 -38 57 -74 111 -80 120 -5 9 -41 63 -80 120 -38 57
-72 108 -75 113 -7 15 -44 69 -50 75 -6 5 -88 132 -105 161 -5 10 -41 64 -80
121 -38 56 -72 107 -74 113 -2 5 -33 52 -69 103 -35 51 -63 94 -61 95 2 1 18
12 36 25 18 12 36 22 41 22 20 0 160 108 222 170 78 79 124 146 177 260 46 97
83 264 83 372 0 90 -27 289 -46 341 -8 23 -19 54 -24 69 -10 32 -59 131 -68
138 -4 3 -26 30 -49 60 -23 30 -66 73 -95 95 -29 22 -55 43 -58 46 -12 16
-170 89 -225 104 -33 9 -67 19 -75 22 -19 7 -18 7 -120 29 -72 15 -149 18
-510 22 -234 2 -428 1 -430 -1z m654 -566 c17 -6 68 -19 112 -30 184 -45 263
-154 264 -364 1 -216 -103 -344 -331 -406 -77 -22 -421 -50 -453 -38 -14 6
-16 46 -16 420 0 228 3 417 7 420 10 11 383 8 417 -2z"/>
<path d="M34475 42279 c-181 -4 -528 -12 -771 -18 -243 -6 -494 -11 -558 -11
l-116 0 0 -1607 0 -1608 212 7 c117 3 436 13 708 22 272 9 581 18 685 21 l190
5 0 288 c0 208 -3 286 -11 285 -7 -1 -236 -9 -510 -18 -275 -8 -520 -16 -546
-18 -32 -1 -49 2 -53 11 -7 19 -6 767 1 786 5 13 25 16 113 16 58 0 200 5 314
10 115 5 296 10 404 10 107 1 201 4 207 6 8 3 10 84 9 282 l-3 277 -372 -5
c-205 -3 -440 -5 -523 -5 l-150 0 -3 341 -3 341 548 12 c301 7 555 11 563 9
13 -3 16 35 20 275 3 152 4 282 2 287 -2 6 -9 9 -15 8 -7 0 -160 -5 -342 -9z"/>
<path d="M21731 12083 c-6 -49 -16 -110 -21 -138 -18 -96 -129 -1001 -141
-1145 -6 -80 -9 -167 -6 -195 10 -100 72 -234 149 -325 28 -33 116 -99 163
-123 108 -54 134 -58 585 -77 394 -18 550 -24 1306 -50 733 -26 1538 -42 2129
-43 l650 -2 55 31 c73 42 103 96 98 175 -7 101 -87 213 -196 274 -24 13 -143
70 -265 126 -122 56 -264 121 -315 145 -51 24 -95 44 -97 44 -2 0 -50 22 -107
48 -164 78 -203 96 -380 176 -92 42 -204 93 -250 114 -46 22 -121 56 -168 77
-47 21 -90 41 -95 46 -6 4 -33 16 -60 27 -28 11 -98 43 -158 71 -59 28 -109
51 -112 51 -2 0 -44 19 -92 43 -48 24 -106 50 -128 59 -38 16 -123 55 -343
159 -57 27 -105 49 -108 49 -2 0 -39 16 -81 36 -43 20 -100 47 -128 59 -27 13
-90 42 -140 65 -271 126 -545 250 -554 250 -8 0 14 -99 34 -150 8 -22 -128
-101 -240 -138 -203 -69 -436 -66 -706 7 -106 29 -128 36 -181 60 -46 20 -48
22 -48 63 -1 52 -23 204 -31 212 -3 3 -11 -33 -18 -81z"/>
<path d="M17162 11877 c-24 -56 -52 -122 -63 -147 -85 -202 -236 -736 -324
-1145 -14 -66 -31 -142 -37 -169 -44 -195 80 -392 274 -435 175 -40 1378 -103
1503 -80 113 21 201 87 255 193 53 106 48 207 -31 561 -83 374 -226 716 -420
1005 -31 47 -65 94 -76 105 -10 11 -29 36 -43 55 -13 19 -42 53 -63 75 l-39
40 7 -122 6 -121 -93 -23 c-81 -20 -118 -23 -283 -23 -197 0 -234 5 -350 52
-100 40 -104 43 -110 92 -4 25 -14 78 -22 118 -23 101 -38 96 -91 -31z"/>
</g>
</svg>
